<svg width="696" height="653" viewBox="0 0 696 653" fill="none" xmlns="http://www.w3.org/2000/svg">
<path fill-rule="evenodd" clip-rule="evenodd" d="M327.611 136.162C387.894 73.8297 496.738 184.611 586.915 311.16C677.093 437.709 738.577 497.842 659.816 579.281C581.055 660.72 412.942 693.102 327.611 579.281C242.281 465.46 267.329 198.493 327.611 136.162Z" fill="url(#paint0_linear)"/>
<path fill-rule="evenodd" clip-rule="evenodd" d="M14.8638 302.677C-36.9348 253.147 55.1259 163.718 160.289 89.627C265.452 15.5348 315.424 -34.9828 383.1 29.7299C450.777 94.4415 477.687 232.567 383.1 302.678C288.514 372.788 66.6623 352.207 14.8638 302.678V302.677Z" fill="#F4F4FC"/>
<path d="M343.507 44.8121L363.565 24.8474L383.624 44.8121L403.682 24.8474L423.741 44.8121L443.799 24.8474" stroke="#D3629D" stroke-width="4"/>
<path d="M343.507 62.7028L363.565 42.738L383.624 62.7028L403.682 42.738L423.741 62.7028L443.799 42.738" stroke="#D3629D" stroke-width="4"/>
<path d="M343.507 80.5932L363.565 60.6285L383.624 80.5932L403.682 60.6285L423.741 80.5932L443.799 60.6285" stroke="#D3629D" stroke-width="4"/>
<path d="M343.507 98.4835L363.565 78.5188L383.624 98.4835L403.682 78.5188L423.741 98.4835L443.799 78.5188" stroke="#D3629D" stroke-width="4"/>
<path fill-rule="evenodd" clip-rule="evenodd" d="M666.043 636.104C666.837 636.104 667.599 636.418 668.161 636.977C668.723 637.536 669.039 638.295 669.039 639.085C669.039 639.876 668.723 640.635 668.161 641.194C667.599 641.753 666.837 642.067 666.043 642.067C665.248 642.067 664.486 641.753 663.925 641.194C663.363 640.635 663.047 639.876 663.047 639.085C663.047 638.295 663.363 637.536 663.925 636.977C664.486 636.418 665.248 636.104 666.043 636.104ZM644.074 636.104C644.869 636.104 645.631 636.418 646.193 636.977C646.755 637.536 647.07 638.295 647.07 639.085C647.07 639.876 646.755 640.635 646.193 641.194C645.631 641.753 644.869 642.067 644.074 642.067C643.28 642.067 642.518 641.753 641.956 641.194C641.394 640.635 641.079 639.876 641.079 639.085C641.079 638.295 641.394 637.536 641.956 636.977C642.518 636.418 643.28 636.104 644.074 636.104ZM622.106 636.104C622.901 636.104 623.663 636.418 624.224 636.977C624.786 637.536 625.102 638.295 625.102 639.085C625.102 639.876 624.786 640.635 624.224 641.194C623.663 641.753 622.901 642.067 622.106 642.067C621.312 642.067 620.55 641.753 619.988 641.194C619.426 640.635 619.11 639.876 619.11 639.085C619.11 638.295 619.426 637.536 619.988 636.977C620.55 636.418 621.312 636.104 622.106 636.104ZM600.138 636.104C600.932 636.104 601.694 636.418 602.256 636.977C602.818 637.536 603.133 638.295 603.133 639.085C603.133 639.876 602.818 640.635 602.256 641.194C601.694 641.753 600.932 642.067 600.138 642.067C599.343 642.067 598.581 641.753 598.019 641.194C597.458 640.635 597.142 639.876 597.142 639.085C597.142 638.295 597.458 637.536 598.019 636.977C598.581 636.418 599.343 636.104 600.138 636.104ZM578.169 636.104C578.964 636.104 579.726 636.418 580.287 636.977C580.849 637.536 581.165 638.295 581.165 639.085C581.165 639.876 580.849 640.635 580.287 641.194C579.726 641.753 578.964 642.067 578.169 642.067C577.375 642.067 576.613 641.753 576.051 641.194C575.489 640.635 575.174 639.876 575.174 639.085C575.174 638.295 575.489 637.536 576.051 636.977C576.613 636.418 577.375 636.104 578.169 636.104ZM556.201 636.104C556.995 636.104 557.757 636.418 558.319 636.977C558.881 637.536 559.196 638.295 559.196 639.085C559.196 639.876 558.881 640.635 558.319 641.194C557.757 641.753 556.995 642.067 556.201 642.067C555.406 642.067 554.644 641.753 554.082 641.194C553.521 640.635 553.205 639.876 553.205 639.085C553.205 638.295 553.521 637.536 554.082 636.977C554.644 636.418 555.406 636.104 556.201 636.104ZM534.232 636.104C535.027 636.104 535.789 636.418 536.351 636.977C536.912 637.536 537.228 638.295 537.228 639.085C537.228 639.876 536.912 640.635 536.351 641.194C535.789 641.753 535.027 642.067 534.232 642.067C533.438 642.067 532.676 641.753 532.114 641.194C531.552 640.635 531.237 639.876 531.237 639.085C531.237 638.295 531.552 637.536 532.114 636.977C532.676 636.418 533.438 636.104 534.232 636.104ZM512.264 636.104C513.058 636.104 513.82 636.418 514.382 636.977C514.944 637.536 515.26 638.295 515.26 639.085C515.26 639.876 514.944 640.635 514.382 641.194C513.82 641.753 513.058 642.067 512.264 642.067C511.469 642.067 510.707 641.753 510.146 641.194C509.584 640.635 509.268 639.876 509.268 639.085C509.268 638.295 509.584 637.536 510.146 636.977C510.707 636.418 511.469 636.104 512.264 636.104ZM490.295 636.104C491.09 636.104 491.852 636.418 492.414 636.977C492.976 637.536 493.291 638.295 493.291 639.085C493.291 639.876 492.976 640.635 492.414 641.194C491.852 641.753 491.09 642.067 490.295 642.067C489.501 642.067 488.739 641.753 488.177 641.194C487.615 640.635 487.3 639.876 487.3 639.085C487.3 638.295 487.615 637.536 488.177 636.977C488.739 636.418 489.501 636.104 490.295 636.104ZM490.295 614.238C491.09 614.238 491.852 614.552 492.414 615.111C492.976 615.67 493.291 616.428 493.291 617.219C493.291 618.01 492.976 618.769 492.414 619.328C491.852 619.887 491.09 620.201 490.295 620.201C489.501 620.201 488.739 619.887 488.177 619.328C487.615 618.769 487.3 618.01 487.3 617.219C487.3 616.428 487.615 615.67 488.177 615.111C488.739 614.552 489.501 614.238 490.295 614.238ZM666.043 614.238C666.837 614.238 667.599 614.552 668.161 615.111C668.723 615.67 669.039 616.428 669.039 617.219C669.039 618.01 668.723 618.769 668.161 619.328C667.599 619.887 666.837 620.201 666.043 620.201C665.248 620.201 664.486 619.887 663.925 619.328C663.363 618.769 663.047 618.01 663.047 617.219C663.047 616.428 663.363 615.67 663.925 615.111C664.486 614.552 665.248 614.238 666.043 614.238ZM644.074 614.238C644.869 614.238 645.631 614.552 646.193 615.111C646.755 615.67 647.07 616.428 647.07 617.219C647.07 618.01 646.755 618.769 646.193 619.328C645.631 619.887 644.869 620.201 644.074 620.201C643.28 620.201 642.518 619.887 641.956 619.328C641.394 618.769 641.079 618.01 641.079 617.219C641.079 616.428 641.394 615.67 641.956 615.111C642.518 614.552 643.28 614.238 644.074 614.238ZM622.106 614.238C622.901 614.238 623.663 614.552 624.224 615.111C624.786 615.67 625.102 616.428 625.102 617.219C625.102 618.01 624.786 618.769 624.224 619.328C623.663 619.887 622.901 620.201 622.106 620.201C621.312 620.201 620.55 619.887 619.988 619.328C619.426 618.769 619.11 618.01 619.11 617.219C619.11 616.428 619.426 615.67 619.988 615.111C620.55 614.552 621.312 614.238 622.106 614.238ZM600.138 614.238C600.932 614.238 601.694 614.552 602.256 615.111C602.818 615.67 603.133 616.428 603.133 617.219C603.133 618.01 602.818 618.769 602.256 619.328C601.694 619.887 600.932 620.201 600.138 620.201C599.343 620.201 598.581 619.887 598.019 619.328C597.458 618.769 597.142 618.01 597.142 617.219C597.142 616.428 597.458 615.67 598.019 615.111C598.581 614.552 599.343 614.238 600.138 614.238ZM578.169 614.238C578.964 614.238 579.726 614.552 580.287 615.111C580.849 615.67 581.165 616.428 581.165 617.219C581.165 618.01 580.849 618.769 580.287 619.328C579.726 619.887 578.964 620.201 578.169 620.201C577.375 620.201 576.613 619.887 576.051 619.328C575.489 618.769 575.174 618.01 575.174 617.219C575.174 616.428 575.489 615.67 576.051 615.111C576.613 614.552 577.375 614.238 578.169 614.238ZM556.201 614.238C556.995 614.238 557.757 614.552 558.319 615.111C558.881 615.67 559.196 616.428 559.196 617.219C559.196 618.01 558.881 618.769 558.319 619.328C557.757 619.887 556.995 620.201 556.201 620.201C555.406 620.201 554.644 619.887 554.082 619.328C553.521 618.769 553.205 618.01 553.205 617.219C553.205 616.428 553.521 615.67 554.082 615.111C554.644 614.552 555.406 614.238 556.201 614.238ZM534.232 614.238C535.027 614.238 535.789 614.552 536.351 615.111C536.912 615.67 537.228 616.428 537.228 617.219C537.228 618.01 536.912 618.769 536.351 619.328C535.789 619.887 535.027 620.201 534.232 620.201C533.438 620.201 532.676 619.887 532.114 619.328C531.552 618.769 531.237 618.01 531.237 617.219C531.237 616.428 531.552 615.67 532.114 615.111C532.676 614.552 533.438 614.238 534.232 614.238ZM512.264 614.238C513.058 614.238 513.82 614.552 514.382 615.111C514.944 615.67 515.26 616.428 515.26 617.219C515.26 618.01 514.944 618.769 514.382 619.328C513.82 619.887 513.058 620.201 512.264 620.201C511.469 620.201 510.707 619.887 510.146 619.328C509.584 618.769 509.268 618.01 509.268 617.219C509.268 616.428 509.584 615.67 510.146 615.111C510.707 614.552 511.469 614.238 512.264 614.238ZM512.264 592.372C513.058 592.372 513.82 592.686 514.382 593.245C514.944 593.804 515.26 594.562 515.26 595.353C515.26 596.144 514.944 596.902 514.382 597.462C513.82 598.021 513.058 598.335 512.264 598.335C511.469 598.335 510.707 598.021 510.146 597.462C509.584 596.902 509.268 596.144 509.268 595.353C509.268 594.562 509.584 593.804 510.146 593.245C510.707 592.686 511.469 592.372 512.264 592.372ZM534.232 592.372C535.027 592.372 535.789 592.686 536.351 593.245C536.912 593.804 537.228 594.562 537.228 595.353C537.228 596.144 536.912 596.902 536.351 597.462C535.789 598.021 535.027 598.335 534.232 598.335C533.438 598.335 532.676 598.021 532.114 597.462C531.552 596.902 531.237 596.144 531.237 595.353C531.237 594.562 531.552 593.804 532.114 593.245C532.676 592.686 533.438 592.372 534.232 592.372ZM556.201 592.372C556.995 592.372 557.757 592.686 558.319 593.245C558.881 593.804 559.196 594.562 559.196 595.353C559.196 596.144 558.881 596.902 558.319 597.462C557.757 598.021 556.995 598.335 556.201 598.335C555.406 598.335 554.644 598.021 554.082 597.462C553.521 596.902 553.205 596.144 553.205 595.353C553.205 594.562 553.521 593.804 554.082 593.245C554.644 592.686 555.406 592.372 556.201 592.372ZM578.169 592.372C578.964 592.372 579.726 592.686 580.287 593.245C580.849 593.804 581.165 594.562 581.165 595.353C581.165 596.144 580.849 596.902 580.287 597.462C579.726 598.021 578.964 598.335 578.169 598.335C577.375 598.335 576.613 598.021 576.051 597.462C575.489 596.902 575.174 596.144 575.174 595.353C575.174 594.562 575.489 593.804 576.051 593.245C576.613 592.686 577.375 592.372 578.169 592.372ZM600.138 592.372C600.932 592.372 601.694 592.686 602.256 593.245C602.818 593.804 603.133 594.562 603.133 595.353C603.133 596.144 602.818 596.902 602.256 597.462C601.694 598.021 600.932 598.335 600.138 598.335C599.343 598.335 598.581 598.021 598.019 597.462C597.458 596.902 597.142 596.144 597.142 595.353C597.142 594.562 597.458 593.804 598.019 593.245C598.581 592.686 599.343 592.372 600.138 592.372ZM622.106 592.372C622.901 592.372 623.663 592.686 624.224 593.245C624.786 593.804 625.102 594.562 625.102 595.353C625.102 596.144 624.786 596.902 624.224 597.462C623.663 598.021 622.901 598.335 622.106 598.335C621.312 598.335 620.55 598.021 619.988 597.462C619.426 596.902 619.11 596.144 619.11 595.353C619.11 594.562 619.426 593.804 619.988 593.245C620.55 592.686 621.312 592.372 622.106 592.372ZM644.074 592.372C644.869 592.372 645.631 592.686 646.193 593.245C646.755 593.804 647.07 594.562 647.07 595.353C647.07 596.144 646.755 596.902 646.193 597.462C645.631 598.021 644.869 598.335 644.074 598.335C643.28 598.335 642.518 598.021 641.956 597.462C641.394 596.902 641.079 596.144 641.079 595.353C641.079 594.562 641.394 593.804 641.956 593.245C642.518 592.686 643.28 592.372 644.074 592.372ZM666.043 592.372C666.837 592.372 667.599 592.686 668.161 593.245C668.723 593.804 669.039 594.562 669.039 595.353C669.039 596.144 668.723 596.902 668.161 597.462C667.599 598.021 666.837 598.335 666.043 598.335C665.248 598.335 664.486 598.021 663.925 597.462C663.363 596.902 663.047 596.144 663.047 595.353C663.047 594.562 663.363 593.804 663.925 593.245C664.486 592.686 665.248 592.372 666.043 592.372ZM490.295 592.372C491.09 592.372 491.852 592.686 492.414 593.245C492.976 593.804 493.291 594.562 493.291 595.353C493.291 596.144 492.976 596.902 492.414 597.462C491.852 598.021 491.09 598.335 490.295 598.335C489.501 598.335 488.739 598.021 488.177 597.462C487.615 596.902 487.3 596.144 487.3 595.353C487.3 594.562 487.615 593.804 488.177 593.245C488.739 592.686 489.501 592.372 490.295 592.372ZM512.264 570.505C513.058 570.505 513.82 570.82 514.382 571.379C514.944 571.938 515.26 572.696 515.26 573.487C515.26 574.278 514.944 575.036 514.382 575.596C513.82 576.155 513.058 576.469 512.264 576.469C511.469 576.469 510.707 576.155 510.146 575.596C509.584 575.036 509.268 574.278 509.268 573.487C509.268 572.696 509.584 571.938 510.146 571.379C510.707 570.82 511.469 570.505 512.264 570.505ZM534.232 570.505C535.027 570.505 535.789 570.82 536.351 571.379C536.912 571.938 537.228 572.696 537.228 573.487C537.228 574.278 536.912 575.036 536.351 575.596C535.789 576.155 535.027 576.469 534.232 576.469C533.438 576.469 532.676 576.155 532.114 575.596C531.552 575.036 531.237 574.278 531.237 573.487C531.237 572.696 531.552 571.938 532.114 571.379C532.676 570.82 533.438 570.505 534.232 570.505ZM556.201 570.505C556.995 570.505 557.757 570.82 558.319 571.379C558.881 571.938 559.196 572.696 559.196 573.487C559.196 574.278 558.881 575.036 558.319 575.596C557.757 576.155 556.995 576.469 556.201 576.469C555.406 576.469 554.644 576.155 554.082 575.596C553.521 575.036 553.205 574.278 553.205 573.487C553.205 572.696 553.521 571.938 554.082 571.379C554.644 570.82 555.406 570.505 556.201 570.505ZM578.169 570.505C578.964 570.505 579.726 570.82 580.287 571.379C580.849 571.938 581.165 572.696 581.165 573.487C581.165 574.278 580.849 575.036 580.287 575.596C579.726 576.155 578.964 576.469 578.169 576.469C577.375 576.469 576.613 576.155 576.051 575.596C575.489 575.036 575.174 574.278 575.174 573.487C575.174 572.696 575.489 571.938 576.051 571.379C576.613 570.82 577.375 570.505 578.169 570.505ZM600.138 570.505C600.932 570.505 601.694 570.82 602.256 571.379C602.818 571.938 603.133 572.696 603.133 573.487C603.133 574.278 602.818 575.036 602.256 575.596C601.694 576.155 600.932 576.469 600.138 576.469C599.343 576.469 598.581 576.155 598.019 575.596C597.458 575.036 597.142 574.278 597.142 573.487C597.142 572.696 597.458 571.938 598.019 571.379C598.581 570.82 599.343 570.505 600.138 570.505ZM622.106 570.505C622.901 570.505 623.663 570.82 624.224 571.379C624.786 571.938 625.102 572.696 625.102 573.487C625.102 574.278 624.786 575.036 624.224 575.596C623.663 576.155 622.901 576.469 622.106 576.469C621.312 576.469 620.55 576.155 619.988 575.596C619.426 575.036 619.11 574.278 619.11 573.487C619.11 572.696 619.426 571.938 619.988 571.379C620.55 570.82 621.312 570.505 622.106 570.505ZM644.074 570.505C644.869 570.505 645.631 570.82 646.193 571.379C646.755 571.938 647.07 572.696 647.07 573.487C647.07 574.278 646.755 575.036 646.193 575.596C645.631 576.155 644.869 576.469 644.074 576.469C643.28 576.469 642.518 576.155 641.956 575.596C641.394 575.036 641.079 574.278 641.079 573.487C641.079 572.696 641.394 571.938 641.956 571.379C642.518 570.82 643.28 570.505 644.074 570.505ZM666.043 570.505C666.837 570.505 667.599 570.82 668.161 571.379C668.723 571.938 669.039 572.696 669.039 573.487C669.039 574.278 668.723 575.036 668.161 575.596C667.599 576.155 666.837 576.469 666.043 576.469C665.248 576.469 664.486 576.155 663.925 575.596C663.363 575.036 663.047 574.278 663.047 573.487C663.047 572.696 663.363 571.938 663.925 571.379C664.486 570.82 665.248 570.505 666.043 570.505ZM490.295 570.505C491.09 570.505 491.852 570.82 492.414 571.379C492.976 571.938 493.291 572.696 493.291 573.487C493.291 574.278 492.976 575.036 492.414 575.596C491.852 576.155 491.09 576.469 490.295 576.469C489.501 576.469 488.739 576.155 488.177 575.596C487.615 575.036 487.3 574.278 487.3 573.487C487.3 572.696 487.615 571.938 488.177 571.379C488.739 570.82 489.501 570.505 490.295 570.505Z" fill="#CF6BCB"/>
<defs>
<linearGradient id="paint0_linear" x1="571.087" y1="286.008" x2="301.141" y2="593.384" gradientUnits="userSpaceOnUse">
<stop stop-color="#9975D0"/>
<stop offset="1" stop-color="#4A3FDB"/>
</linearGradient>
</defs>
</svg>
