<svg width="179" height="72" viewBox="0 0 179 72" fill="none" xmlns="http://www.w3.org/2000/svg">
<rect width="179" height="72" rx="9" fill="white"/>
<path d="M103.797 38.065C103.19 38.065 102.618 37.9523 102.081 37.727C101.552 37.493 101.08 37.168 100.664 36.752C100.257 36.3273 99.936 35.829 99.702 35.257C99.4767 34.6763 99.364 34.0307 99.364 33.32C99.364 32.6787 99.4767 32.0807 99.702 31.526C99.936 30.9713 100.261 30.4817 100.677 30.057C101.102 29.6323 101.591 29.303 102.146 29.069C102.709 28.8263 103.316 28.705 103.966 28.705C104.815 28.705 105.561 28.887 106.202 29.251C106.852 29.615 107.337 30.1047 107.658 30.72L106.072 31.916C105.864 31.5087 105.561 31.188 105.162 30.954C104.763 30.72 104.339 30.603 103.888 30.603C103.42 30.603 103.008 30.7287 102.653 30.98C102.298 31.2227 102.02 31.5563 101.821 31.981C101.622 32.4057 101.522 32.878 101.522 33.398C101.522 33.9267 101.626 34.4033 101.834 34.828C102.042 35.244 102.328 35.5733 102.692 35.816C103.065 36.05 103.494 36.167 103.979 36.167C104.811 36.167 105.561 35.7857 106.228 35.023V34.724H104.434V33.177H107.996V38H106.228V37.09C105.526 37.74 104.716 38.065 103.797 38.065ZM117.036 35.634C117.036 36.1627 116.893 36.6047 116.607 36.96C116.321 37.3067 115.94 37.5667 115.463 37.74C114.995 37.9133 114.475 38 113.903 38H109.405V28.77H114.54C114.974 28.77 115.346 28.887 115.658 29.121C115.97 29.3463 116.213 29.641 116.386 30.005C116.56 30.369 116.646 30.746 116.646 31.136C116.646 31.5693 116.534 31.9853 116.308 32.384C116.083 32.7827 115.754 33.0773 115.32 33.268C115.84 33.424 116.256 33.7013 116.568 34.1C116.88 34.4987 117.036 35.01 117.036 35.634ZM111.537 30.59V32.501H113.63C113.864 32.501 114.072 32.423 114.254 32.267C114.436 32.111 114.527 31.8683 114.527 31.539C114.527 31.2357 114.445 31.0017 114.28 30.837C114.124 30.6723 113.934 30.59 113.708 30.59H111.537ZM114.865 35.205C114.865 34.919 114.783 34.6763 114.618 34.477C114.454 34.2777 114.246 34.178 113.994 34.178H111.537V36.193H113.903C114.172 36.193 114.397 36.102 114.579 35.92C114.77 35.7293 114.865 35.491 114.865 35.205ZM121.326 38V28.77H123.458V36.128H127.93V38H121.326ZM135.418 36.128V38H128.931V28.77H135.301V30.642H131.063V32.436H134.703V34.165H131.063V36.128H135.418ZM136.713 38V28.77H142.979V30.642H138.845V32.631H142.251V34.36H138.845V38H136.713ZM151.147 30.642H148.339V38H146.207V30.642H143.386V28.77H151.147V30.642Z" fill="#9B9B9E"/>
</svg>
