<svg width="48" height="48" viewBox="0 0 48 48" fill="none" xmlns="http://www.w3.org/2000/svg">
<rect width="48" height="48" rx="10" fill="#6D7F97"/>
<rect width="48" height="48" rx="10" fill="#6E8098"/>
<path d="M25.991 12H16.399C16.0846 12 15.7733 12.0621 15.483 12.1827C15.1927 12.3034 14.9291 12.4802 14.7073 12.703C14.4855 12.9258 14.3099 13.1903 14.1906 13.4812C14.0712 13.772 14.0106 14.0836 14.012 14.398L14 33.583C13.9986 33.8974 14.0592 34.209 14.1786 34.4998C14.2979 34.7907 14.4735 35.0552 14.6953 35.278C14.9171 35.5008 15.1807 35.6776 15.471 35.7983C15.7613 35.9189 16.0726 35.981 16.387 35.981H30.787C31.102 35.9811 31.4139 35.9192 31.7049 35.7987C31.9959 35.6783 32.2603 35.5016 32.483 35.2789C32.7057 35.0562 32.8823 34.7918 33.0028 34.5008C33.1232 34.2098 33.1852 33.8979 33.185 33.583V19.194L25.991 12ZM24.793 20.393V13.8L31.388 20.394H24.793V20.393Z" fill="#E5E5E5"/>
</svg>
