<svg width="193" height="101" viewBox="0 0 193 101" fill="none" xmlns="http://www.w3.org/2000/svg">
<path d="M0 9C0 4.02944 4.02944 0 9 0H170C174.971 0 179 4.02944 179 9V72H9C4.02944 72 0 67.9706 0 63V9Z" fill="white"/>
<path d="M41.8 43.16V48H25.56V43.16H31.24V31.04C30.92 31.44 30.3733 31.8667 29.6 32.32C28.8533 32.7733 28.0267 33.16 27.12 33.48C26.24 33.8 25.4533 33.96 24.76 33.96V28.96C25.24 28.96 25.8133 28.8133 26.48 28.52C27.1733 28.2 27.8533 27.8267 28.52 27.4C29.2133 26.9733 29.8 26.56 30.28 26.16C30.7867 25.7333 31.1067 25.4 31.24 25.16H36.72V43.16H41.8ZM65.1656 39.6C65.1656 41.36 64.6856 42.9067 63.7256 44.24C62.7923 45.5467 61.539 46.56 59.9656 47.28C58.3923 48 56.6723 48.36 54.8056 48.36C52.9123 48.36 51.179 47.9867 49.6056 47.24C48.059 46.4667 46.819 45.4133 45.8856 44.08C44.979 42.72 44.5256 41.16 44.5256 39.4C44.5256 38.3333 44.7523 37.3733 45.2056 36.52C45.659 35.64 46.219 34.8933 46.8856 34.28C47.579 33.6667 48.2723 33.1733 48.9656 32.8C47.979 32.32 47.139 31.6 46.4456 30.64C45.7523 29.68 45.4056 28.6267 45.4056 27.48C45.4056 26.2 45.6856 25.08 46.2456 24.12C46.8056 23.1333 47.5523 22.3067 48.4856 21.64C49.419 20.9733 50.4323 20.4667 51.5256 20.12C52.6456 19.7733 53.7523 19.6 54.8456 19.6C55.9123 19.6 57.0056 19.7733 58.1256 20.12C59.2456 20.44 60.2723 20.9333 61.2056 21.6C62.139 22.2667 62.8856 23.0933 63.4456 24.08C64.0323 25.04 64.3256 26.16 64.3256 27.44C64.3256 28.5867 63.9656 29.6533 63.2456 30.64C62.5256 31.6267 61.659 32.3467 60.6456 32.8C61.819 33.3867 62.859 34.2667 63.7656 35.44C64.699 36.5867 65.1656 37.9733 65.1656 39.6ZM50.8456 27.64C50.8456 28.36 51.0456 28.9733 51.4456 29.48C51.8456 29.9867 52.3523 30.3733 52.9656 30.64C53.579 30.88 54.2056 31 54.8456 31C55.459 31 56.0723 30.88 56.6856 30.64C57.299 30.3733 57.8056 29.9867 58.2056 29.48C58.6323 28.9733 58.8456 28.3467 58.8456 27.6C58.8456 26.6133 58.4456 25.8267 57.6456 25.24C56.8456 24.6533 55.899 24.36 54.8056 24.36C53.739 24.36 52.8056 24.6667 52.0056 25.28C51.2323 25.8667 50.8456 26.6533 50.8456 27.64ZM59.7256 39.28C59.7256 38.3733 59.4856 37.6133 59.0056 37C58.5256 36.36 57.9123 35.88 57.1656 35.56C56.419 35.2133 55.6323 35.04 54.8056 35.04C53.9523 35.04 53.1523 35.2133 52.4056 35.56C51.6856 35.9067 51.099 36.4 50.6456 37.04C50.1923 37.68 49.9656 38.4267 49.9656 39.28C49.9656 40.1333 50.2056 40.88 50.6856 41.52C51.1656 42.1333 51.779 42.6267 52.5256 43C53.2723 43.3467 54.0456 43.52 54.8456 43.52C55.699 43.52 56.4856 43.3333 57.2056 42.96C57.9523 42.5867 58.5523 42.0933 59.0056 41.48C59.4856 40.84 59.7256 40.1067 59.7256 39.28ZM77.3863 53.96C75.3329 53.96 73.4796 53.52 71.8263 52.64C70.1729 51.76 68.9196 50.56 68.0663 49.04L71.1463 45.84C71.8929 46.88 72.8263 47.7067 73.9463 48.32C75.0663 48.9333 76.2263 49.24 77.4263 49.24C78.8663 49.24 80.0396 48.8 80.9463 47.92C81.8796 47.04 82.3463 45.8933 82.3463 44.48C82.3463 43.0933 81.9063 41.9733 81.0263 41.12C80.1463 40.2667 79.0529 39.84 77.7463 39.84C76.8663 39.84 76.0396 40.04 75.2663 40.44C74.5196 40.8133 73.9196 41.36 73.4663 42.08H68.7863L72.0663 25.16H86.0663V30.04H75.9463L74.7863 36.4C75.1063 36.08 75.5729 35.8133 76.1863 35.6C76.8263 35.36 77.5996 35.24 78.5063 35.24C80.2929 35.24 81.8796 35.6267 83.2663 36.4C84.6796 37.1733 85.7863 38.2533 86.5863 39.64C87.4129 41 87.8263 42.5733 87.8263 44.36C87.8263 46.28 87.3729 47.96 86.4663 49.4C85.5596 50.84 84.3196 51.96 82.7463 52.76C81.1729 53.56 79.3863 53.96 77.3863 53.96Z" fill="#0E122B"/>
<path d="M103.797 38.065C103.19 38.065 102.618 37.9523 102.081 37.727C101.552 37.493 101.08 37.168 100.664 36.752C100.257 36.3273 99.936 35.829 99.702 35.257C99.4767 34.6763 99.364 34.0307 99.364 33.32C99.364 32.6787 99.4767 32.0807 99.702 31.526C99.936 30.9713 100.261 30.4817 100.677 30.057C101.102 29.6323 101.591 29.303 102.146 29.069C102.709 28.8263 103.316 28.705 103.966 28.705C104.815 28.705 105.561 28.887 106.202 29.251C106.852 29.615 107.337 30.1047 107.658 30.72L106.072 31.916C105.864 31.5087 105.561 31.188 105.162 30.954C104.763 30.72 104.339 30.603 103.888 30.603C103.42 30.603 103.008 30.7287 102.653 30.98C102.298 31.2227 102.02 31.5563 101.821 31.981C101.622 32.4057 101.522 32.878 101.522 33.398C101.522 33.9267 101.626 34.4033 101.834 34.828C102.042 35.244 102.328 35.5733 102.692 35.816C103.065 36.05 103.494 36.167 103.979 36.167C104.811 36.167 105.561 35.7857 106.228 35.023V34.724H104.434V33.177H107.996V38H106.228V37.09C105.526 37.74 104.716 38.065 103.797 38.065ZM117.036 35.634C117.036 36.1627 116.893 36.6047 116.607 36.96C116.321 37.3067 115.94 37.5667 115.463 37.74C114.995 37.9133 114.475 38 113.903 38H109.405V28.77H114.54C114.974 28.77 115.346 28.887 115.658 29.121C115.97 29.3463 116.213 29.641 116.386 30.005C116.56 30.369 116.646 30.746 116.646 31.136C116.646 31.5693 116.534 31.9853 116.308 32.384C116.083 32.7827 115.754 33.0773 115.32 33.268C115.84 33.424 116.256 33.7013 116.568 34.1C116.88 34.4987 117.036 35.01 117.036 35.634ZM111.537 30.59V32.501H113.63C113.864 32.501 114.072 32.423 114.254 32.267C114.436 32.111 114.527 31.8683 114.527 31.539C114.527 31.2357 114.445 31.0017 114.28 30.837C114.124 30.6723 113.934 30.59 113.708 30.59H111.537ZM114.865 35.205C114.865 34.919 114.783 34.6763 114.618 34.477C114.454 34.2777 114.246 34.178 113.994 34.178H111.537V36.193H113.903C114.172 36.193 114.397 36.102 114.579 35.92C114.77 35.7293 114.865 35.491 114.865 35.205ZM121.326 38V28.77H123.458V36.128H127.93V38H121.326ZM135.418 36.128V38H128.931V28.77H135.301V30.642H131.063V32.436H134.703V34.165H131.063V36.128H135.418ZM136.713 38V28.77H142.979V30.642H138.845V32.631H142.251V34.36H138.845V38H136.713ZM151.147 30.642H148.339V38H146.207V30.642H143.386V28.77H151.147V30.642Z" fill="#9B9B9E"/>
<line x1="156" y1="70.5" x2="178" y2="70.5" stroke="white"/>
<path d="M178.985 71.1493L179.169 94.4619L155.672 71.3491L178.985 71.1493Z" fill="white"/>
</svg>
