<svg width="466" height="296" viewBox="0 0 466 296" fill="none" xmlns="http://www.w3.org/2000/svg">
<path d="M2.63459 295.729C1.81327 191.797 104.619 106.8 232.257 105.879C359.895 104.96 464.032 188.468 464.853 292.399" stroke="#B5B2B2"/>
<path d="M170.5 222.515C196.181 222.515 217 201.807 217 176.262C217 150.717 196.181 130.009 170.5 130.009C144.819 130.009 124 150.717 124 176.262C124 201.807 144.819 222.515 170.5 222.515Z" fill="#F2F2F2"/>
<path d="M277 130.071L276.989 130.077L228.742 157.158L175.91 130.529L175 130.071L177.742 74.7923L225.452 40.5195L225.978 40.8513L275.355 72.0283L277 130.071Z" fill="#4C88B5"/>
<path opacity="0.3" d="M277 129.791L228.791 157.158L176 130.25L222.763 96.8273L277 129.791Z" fill="black"/>
<path opacity="0.1" d="M277 130.009L223 97.2962L226.251 40.5195L275.364 71.791L277 130.009Z" fill="black"/>
<path d="M177.268 91.8002L177 91.4123L225.143 56.6078L276 89.2656L275.754 89.6681L225.158 57.178L177.268 91.8002Z" fill="#F2F2F2"/>
<path d="M176.26 109.899L176 109.525L223.914 77.7233L224.04 77.793L276 106.582L275.771 106.976L223.936 78.2568L176.26 109.899Z" fill="#F2F2F2"/>
<path d="M194.246 140.064L194 139.666L242.534 109.469V51.5804H243V109.73L194.246 140.064Z" fill="#F2F2F2"/>
<path d="M213.247 149.113L213 148.721L259.536 119.534V62.6407H260V119.791L213.247 149.113Z" fill="#F2F2F2"/>
<path d="M259.776 140.064L206 109.663L206.008 109.517L208.839 52.5856L209.299 52.6095L206.475 109.395L260 139.654L259.776 140.064Z" fill="#F2F2F2"/>
<path d="M242.783 149.113L189 121.094L189.008 120.946L192.179 64.6517L192.645 64.6776L189.483 120.822L243 148.703L242.783 149.113Z" fill="#F2F2F2"/>
<path d="M286.5 40.5197C296.717 40.5197 305 32.1915 305 21.918C305 11.6445 296.717 3.31628 286.5 3.31628C276.283 3.31628 268 11.6445 268 21.918C268 32.1915 276.283 40.5197 286.5 40.5197Z" fill="#3F3D56"/>
<path d="M226 197.378C203.328 197.378 181.356 189.472 163.83 175.01C146.303 160.548 134.307 140.422 129.883 118.063C125.46 95.7035 128.884 72.4935 139.572 52.3879C150.26 32.2823 167.55 16.5249 188.497 7.80071C209.444 -0.923541 232.751 -2.07489 254.448 4.54284C276.144 11.1606 294.888 25.1379 307.484 44.0933C320.08 63.0487 325.75 85.8093 323.528 108.497C321.306 131.184 311.328 152.396 295.296 168.516C286.217 177.695 275.418 184.971 263.523 189.926C251.629 194.88 238.875 197.413 226 197.378ZM226 1.05251C172.376 1.05251 128.749 44.9191 128.749 98.8382C128.749 152.758 172.376 196.625 226 196.625C279.625 196.625 323.252 152.758 323.252 98.8382C323.252 44.9191 279.625 1.05251 226 1.05251Z" fill="#4C88B5"/>
</svg>
