<svg width="311" height="569" viewBox="0 0 311 569" fill="none" xmlns="http://www.w3.org/2000/svg">
<path d="M173.07 282.568C209.266 282.568 238.609 275.732 238.609 267.299C238.609 258.866 209.266 252.03 173.07 252.03C136.875 252.03 107.532 258.866 107.532 267.299C107.532 275.732 136.875 282.568 173.07 282.568Z" fill="#3F3D56"/>
<path d="M101.602 293.664L33.6494 474.737L35.3333 475.437L103.286 294.364L101.602 293.664Z" fill="#3F3D56"/>
<path d="M242.731 293.658L241.047 294.357L308.967 475.444L310.651 474.744L242.731 293.658Z" fill="#3F3D56"/>
<path d="M172.57 294.152H171.57V475.278H172.57V294.152Z" fill="#3F3D56"/>
<path d="M91.9654 358.918L91.1553 360.624L159.981 396.841L160.791 395.136L91.9654 358.918Z" fill="#3F3D56"/>
<path d="M252.351 358.918L183.526 395.136L184.336 396.841L253.161 360.624L252.351 358.918Z" fill="#3F3D56"/>
<path d="M83.5185 158.865C83.5185 158.865 56.6531 129.156 49.489 147.365C42.3249 165.573 76.3544 175.157 76.3544 175.157L83.5185 158.865Z" fill="#FFB8B8"/>
<path d="M142.614 210.962L107.383 264.307L70.3448 318.604L59.5044 475.78L96.5422 480.543C96.5422 480.543 91.122 437.677 101.059 411.957C110.996 386.237 110.996 339.561 110.996 339.561L175.135 257.638L211.269 323.367L250.114 480.543L282.635 477.686C282.635 477.686 270.891 405.289 272.698 397.668C274.504 390.048 253.727 326.225 253.727 326.225L237.467 201.436C237.467 201.436 163.391 190.005 142.614 210.962Z" fill="#2F2E41"/>
<path d="M158.562 69.8512C172.93 69.8512 184.577 57.593 184.577 42.4718C184.577 27.3505 172.93 15.0923 158.562 15.0923C144.194 15.0923 132.547 27.3505 132.547 42.4718C132.547 57.593 144.194 69.8512 158.562 69.8512Z" fill="#FFB8B8"/>
<path d="M175.233 51.9492L194.174 72.6215L199.586 104.57L151.781 113.026L155.389 83.8973C155.389 83.8973 154.487 69.8026 150.879 66.9836C147.271 64.1647 175.233 51.9492 175.233 51.9492Z" fill="#FFB8B8"/>
<path d="M150.723 87.2L155.15 81.9604L169.807 95.7739L194.344 71.9575L231.605 203.424C231.605 203.424 207.976 194.85 185.257 206.282C162.537 217.714 132.547 214.856 132.547 214.856L133.456 108.158L150.723 87.2Z" fill="#575A89"/>
<path d="M124.357 108.505L154.572 79.3286C154.572 79.3286 164.937 95.1793 160.428 125.638C155.919 156.097 152.312 216.063 136.08 232.244C119.848 248.425 113.536 254.136 113.536 254.136L129.768 185.604C129.768 185.604 117.143 116.12 124.357 108.505Z" fill="#D0CDE1"/>
<path d="M185.578 62.6219C185.578 62.6219 239.694 56.9519 240.602 63.6201C241.51 70.2884 235.153 146.497 235.153 146.497C235.153 146.497 291.456 225.563 267.845 240.805C256.835 247.913 247.321 232.302 233.791 212.703C218.308 190.274 199.374 162.128 197.92 148.402C195.196 122.682 185.578 62.6219 185.578 62.6219Z" fill="#D0CDE1"/>
<path d="M127.05 135.141L122.563 172.427L83.0751 154.262L70.5107 181.988L135.127 207.802C135.127 207.802 146.794 141.833 127.05 135.141Z" fill="#D0CDE1"/>
<path d="M63.111 471.066L36.7803 515.969C36.7803 515.969 -13.1572 544.63 4.09391 552.273C21.3451 559.916 63.111 543.675 67.6508 534.121C72.1906 524.567 74.0065 522.657 75.8224 524.567C77.6383 526.478 100.337 518.835 101.245 515.969C102.153 513.103 101.245 480.62 93.0735 476.798C84.9019 472.977 63.111 471.066 63.111 471.066Z" fill="#2F2E41"/>
<path d="M251.616 475.085L257.031 510.482L263.348 535.355C263.348 535.355 267.86 571.709 289.518 568.839C300.347 567.404 304.183 559.272 305.311 551.499C306.319 544.105 305.051 536.564 301.694 529.995L289.518 505.699L278.689 473.172L251.616 475.085Z" fill="#2F2E41"/>
<path d="M132.246 47.3011C132.246 47.3011 128.703 43.2879 129.061 38.2638C129.298 35.4058 129.123 32.5268 128.544 29.7232C128.544 29.7232 129.653 21.5 131.291 16.7336C132.928 11.9671 131.548 10.3083 138.586 7.70609C145.625 5.10386 141.144 -4.30633 161.896 3.19421C162.685 4.03016 163.693 4.60215 164.792 4.83798C165.89 5.07382 167.031 4.96294 168.07 4.51933C171.901 3.04758 174.21 8.56848 174.21 8.56848C174.21 8.56848 176.6 6.5119 177.941 8.65004C179.282 10.7882 185.767 5.91489 188.145 21.4699C190.523 37.0249 182.359 50.8963 182.359 50.8963C182.359 50.8963 181.214 26.0046 167.737 25.5533C154.26 25.1021 139.019 19.7474 137.129 30.2293C136.141 36.1 134.502 41.8295 132.246 47.3011Z" fill="#2F2E41"/>
<path d="M225.87 190.953C225.87 190.953 193.26 213.634 208.775 224.583C224.289 235.533 239.609 201.543 239.609 201.543L225.87 190.953Z" fill="#FFB8B8"/>
<path d="M234.413 63.6739C234.413 63.6739 242.477 58.8982 245.165 68.4496C247.853 78.001 275.631 151.547 275.631 151.547L240.685 208.855L215.596 189.752L246.061 151.547L225.452 124.803L234.413 63.6739Z" fill="#D0CDE1"/>
</svg>
