<svg width="466" height="310" viewBox="0 0 466 310" fill="none" xmlns="http://www.w3.org/2000/svg">
<path d="M2.63457 309.716C1.81325 200.869 104.619 111.851 232.257 110.887C359.895 109.924 464.032 197.382 464.853 306.229" stroke="#B5B2B2"/>
<path d="M170.5 233.039C196.181 233.039 217 211.352 217 184.599C217 157.846 196.181 136.158 170.5 136.158C144.819 136.158 124 157.846 124 184.599C124 211.352 144.819 233.039 170.5 233.039Z" fill="#F2F2F2"/>
<path d="M277 136.223L276.989 136.229L228.742 164.591L175.91 136.703L175 136.223L177.742 78.3298L225.452 42.436L225.978 42.7835L275.355 75.4351L277 136.223Z" fill="#4C88B5"/>
<path opacity="0.3" d="M277 135.93L228.791 164.591L176 136.41L222.763 101.407L277 135.93Z" fill="black"/>
<path opacity="0.1" d="M277 136.158L223 101.898L226.251 42.436L275.364 75.1865L277 136.158Z" fill="black"/>
<path d="M177.268 96.1421L177 95.7359L225.143 59.2852L276 93.4876L275.754 93.9092L225.158 59.8824L177.268 96.1421Z" fill="#F2F2F2"/>
<path d="M176.26 115.097L176 114.705L223.914 81.3994L224.04 81.4724L276 111.623L275.771 112.036L223.936 81.9581L176.26 115.097Z" fill="#F2F2F2"/>
<path d="M194.246 146.689L194 146.272L242.534 114.647V54.02H243V114.92L194.246 146.689Z" fill="#F2F2F2"/>
<path d="M213.247 156.166L213 155.755L259.536 125.188V65.6035H260V125.457L213.247 156.166Z" fill="#F2F2F2"/>
<path d="M259.776 146.689L206 114.85L206.008 114.697L208.839 55.0728L209.299 55.0978L206.475 114.569L260 146.259L259.776 146.689Z" fill="#F2F2F2"/>
<path d="M242.783 156.166L189 126.821L189.008 126.666L192.179 67.7095L192.645 67.7367L189.483 126.537L243 155.736L242.783 156.166Z" fill="#F2F2F2"/>
<path d="M286.5 42.4362C296.717 42.4362 305 33.7141 305 22.9547C305 12.1953 296.717 3.47314 286.5 3.47314C276.283 3.47314 268 12.1953 268 22.9547C268 33.7141 276.283 42.4362 286.5 42.4362Z" fill="#3F3D56"/>
<path d="M226 206.713C203.328 206.713 181.356 198.434 163.83 183.288C146.303 168.141 134.307 147.064 129.883 123.647C125.46 100.23 128.884 75.9222 139.572 54.8657C150.26 33.8091 167.55 17.3065 188.497 8.16964C209.444 -0.967243 232.751 -2.17305 254.448 4.75768C276.144 11.6884 294.888 26.3268 307.484 46.1788C320.08 66.0307 325.75 89.8678 323.528 113.629C321.306 137.389 311.328 159.604 295.296 176.486C286.217 186.099 275.418 193.72 263.523 198.909C251.629 204.097 238.875 206.75 226 206.713ZM226 1.10227C172.376 1.10227 128.749 47.0436 128.749 103.513C128.749 159.983 172.376 205.925 226 205.925C279.625 205.925 323.252 159.983 323.252 103.513C323.252 47.0436 279.625 1.10227 226 1.10227Z" fill="#4C88B5"/>
</svg>
