<svg width="164" height="40" viewBox="0 0 164 40" fill="none" xmlns="http://www.w3.org/2000/svg">
<ellipse cx="16" cy="15.5" rx="16" ry="15.5" fill="#3871A7"/>
<circle cx="28.5" cy="29.5" r="10.5" fill="white"/>
<rect x="26" y="23" width="4" height="11" fill="#3871A7"/>
<rect x="34" y="26.6667" width="3.66667" height="12" transform="rotate(90 34 26.6667)" fill="#3871A7"/>
<rect x="9" y="13.3486" width="3" height="9.72502" rx="1.5" transform="rotate(-38.317 9 13.3486)" fill="white"/>
<rect x="33.6907" y="1.35889" width="3" height="25.6777" rx="1.5" transform="rotate(49.2908 33.6907 1.35889)" fill="white"/>
<path d="M32.8689 1.9926C33.4951 1.4444 34.4471 1.5076 34.9953 2.13375V2.13375C35.5435 2.7599 35.4803 3.71189 34.8541 4.26009L30.358 8.19641L28.3729 5.92892L32.8689 1.9926Z" fill="#3871A7"/>
<path d="M49.0723 9.78125L53.7207 21.3828L58.3691 9.78125H60.8008V24H58.9258V18.4629L59.1016 12.4863L54.4336 24H52.998L48.3398 12.5156L48.5254 18.4629V24H46.6504V9.78125H49.0723ZM70.3516 24C70.2474 23.7917 70.1628 23.4206 70.0977 22.8867C69.2578 23.7591 68.2552 24.1953 67.0898 24.1953C66.0482 24.1953 65.1921 23.9023 64.5215 23.3164C63.8574 22.724 63.5254 21.9753 63.5254 21.0703C63.5254 19.9701 63.9421 19.1172 64.7754 18.5117C65.6152 17.8997 66.7936 17.5938 68.3105 17.5938H70.0684V16.7637C70.0684 16.1322 69.8796 15.6309 69.502 15.2598C69.1243 14.8822 68.5677 14.6934 67.832 14.6934C67.1875 14.6934 66.6471 14.8561 66.2109 15.1816C65.7747 15.5072 65.5566 15.901 65.5566 16.3633H63.7402C63.7402 15.8359 63.9258 15.3281 64.2969 14.8398C64.6745 14.3451 65.1823 13.9544 65.8203 13.668C66.4648 13.3815 67.1712 13.2383 67.9395 13.2383C69.1569 13.2383 70.1107 13.5443 70.8008 14.1562C71.4909 14.7617 71.849 15.5983 71.875 16.666V21.5293C71.875 22.4993 71.9987 23.2708 72.2461 23.8438V24H70.3516ZM67.3535 22.623C67.9199 22.623 68.457 22.4766 68.9648 22.1836C69.4727 21.8906 69.8405 21.5098 70.0684 21.041V18.873H68.6523C66.4388 18.873 65.332 19.5208 65.332 20.8164C65.332 21.3828 65.5208 21.8255 65.8984 22.1445C66.276 22.4635 66.7611 22.623 67.3535 22.623ZM79.8145 15.0547C79.541 15.0091 79.2448 14.9863 78.9258 14.9863C77.7409 14.9863 76.9368 15.4909 76.5137 16.5V24H74.707V13.4336H76.4648L76.4941 14.6543C77.0866 13.7103 77.9264 13.2383 79.0137 13.2383C79.3652 13.2383 79.6322 13.2839 79.8145 13.375V15.0547ZM85.5273 22.7207C86.1719 22.7207 86.735 22.5254 87.2168 22.1348C87.6986 21.7441 87.9655 21.2559 88.0176 20.6699H89.7266C89.694 21.2754 89.4857 21.8516 89.1016 22.3984C88.7174 22.9453 88.2031 23.3815 87.5586 23.707C86.9206 24.0326 86.2435 24.1953 85.5273 24.1953C84.0885 24.1953 82.9427 23.7168 82.0898 22.7598C81.2435 21.7962 80.8203 20.4811 80.8203 18.8145V18.5117C80.8203 17.4831 81.0091 16.5684 81.3867 15.7676C81.7643 14.9668 82.3047 14.3451 83.0078 13.9023C83.7174 13.4596 84.554 13.2383 85.5176 13.2383C86.7025 13.2383 87.6855 13.5931 88.4668 14.3027C89.2546 15.0124 89.6745 15.9336 89.7266 17.0664H88.0176C87.9655 16.3828 87.7051 15.8229 87.2363 15.3867C86.7741 14.944 86.2012 14.7227 85.5176 14.7227C84.5996 14.7227 83.8867 15.0547 83.3789 15.7188C82.8776 16.3763 82.627 17.3301 82.627 18.5801V18.9219C82.627 20.1393 82.8776 21.0768 83.3789 21.7344C83.8802 22.3919 84.5964 22.7207 85.5273 22.7207ZM98.2812 24C98.1771 23.7917 98.0924 23.4206 98.0273 22.8867C97.1875 23.7591 96.1849 24.1953 95.0195 24.1953C93.9779 24.1953 93.1217 23.9023 92.4512 23.3164C91.7871 22.724 91.4551 21.9753 91.4551 21.0703C91.4551 19.9701 91.8717 19.1172 92.7051 18.5117C93.5449 17.8997 94.7233 17.5938 96.2402 17.5938H97.998V16.7637C97.998 16.1322 97.8092 15.6309 97.4316 15.2598C97.054 14.8822 96.4974 14.6934 95.7617 14.6934C95.1172 14.6934 94.5768 14.8561 94.1406 15.1816C93.7044 15.5072 93.4863 15.901 93.4863 16.3633H91.6699C91.6699 15.8359 91.8555 15.3281 92.2266 14.8398C92.6042 14.3451 93.112 13.9544 93.75 13.668C94.3945 13.3815 95.1009 13.2383 95.8691 13.2383C97.0866 13.2383 98.0404 13.5443 98.7305 14.1562C99.4206 14.7617 99.7786 15.5983 99.8047 16.666V21.5293C99.8047 22.4993 99.9284 23.2708 100.176 23.8438V24H98.2812ZM95.2832 22.623C95.8496 22.623 96.3867 22.4766 96.8945 22.1836C97.4023 21.8906 97.7702 21.5098 97.998 21.041V18.873H96.582C94.3685 18.873 93.2617 19.5208 93.2617 20.8164C93.2617 21.3828 93.4505 21.8255 93.8281 22.1445C94.2057 22.4635 94.6908 22.623 95.2832 22.623ZM107.744 15.0547C107.471 15.0091 107.174 14.9863 106.855 14.9863C105.671 14.9863 104.867 15.4909 104.443 16.5V24H102.637V13.4336H104.395L104.424 14.6543C105.016 13.7103 105.856 13.2383 106.943 13.2383C107.295 13.2383 107.562 13.2839 107.744 13.375V15.0547ZM116.826 10.875V13.4336H118.799V14.8301H116.826V21.3828C116.826 21.806 116.914 22.125 117.09 22.3398C117.266 22.5482 117.565 22.6523 117.988 22.6523C118.197 22.6523 118.483 22.6133 118.848 22.5352V24C118.372 24.1302 117.91 24.1953 117.461 24.1953C116.654 24.1953 116.045 23.9512 115.635 23.4629C115.225 22.9746 115.02 22.2812 115.02 21.3828V14.8301H113.096V13.4336H115.02V10.875H116.826ZM120.244 18.6191C120.244 17.584 120.446 16.653 120.85 15.8262C121.26 14.9993 121.826 14.3613 122.549 13.9121C123.278 13.4629 124.108 13.2383 125.039 13.2383C126.478 13.2383 127.64 13.7363 128.525 14.7324C129.417 15.7285 129.863 17.0534 129.863 18.707V18.834C129.863 19.8626 129.665 20.7871 129.268 21.6074C128.877 22.4212 128.314 23.056 127.578 23.5117C126.849 23.9674 126.009 24.1953 125.059 24.1953C123.626 24.1953 122.464 23.6973 121.572 22.7012C120.687 21.7051 120.244 20.3867 120.244 18.7461V18.6191ZM122.061 18.834C122.061 20.0059 122.331 20.9466 122.871 21.6562C123.418 22.3659 124.147 22.7207 125.059 22.7207C125.977 22.7207 126.706 22.3626 127.246 21.6465C127.786 20.9238 128.057 19.9147 128.057 18.6191C128.057 17.4603 127.78 16.5228 127.227 15.8066C126.68 15.084 125.951 14.7227 125.039 14.7227C124.147 14.7227 123.428 15.0775 122.881 15.7871C122.334 16.4967 122.061 17.5124 122.061 18.834ZM131.689 18.6289C131.689 17.0078 132.074 15.7057 132.842 14.7227C133.61 13.7331 134.616 13.2383 135.859 13.2383C137.096 13.2383 138.076 13.6615 138.799 14.5078V9H140.605V24H138.945L138.857 22.8672C138.135 23.7526 137.129 24.1953 135.84 24.1953C134.616 24.1953 133.617 23.694 132.842 22.6914C132.074 21.6888 131.689 20.3802 131.689 18.7656V18.6289ZM133.496 18.834C133.496 20.0319 133.743 20.9694 134.238 21.6465C134.733 22.3236 135.417 22.6621 136.289 22.6621C137.435 22.6621 138.271 22.1478 138.799 21.1191V16.2656C138.258 15.2695 137.428 14.7715 136.309 14.7715C135.423 14.7715 134.733 15.1133 134.238 15.7969C133.743 16.4805 133.496 17.4928 133.496 18.834ZM142.939 18.6191C142.939 17.584 143.141 16.653 143.545 15.8262C143.955 14.9993 144.521 14.3613 145.244 13.9121C145.973 13.4629 146.803 13.2383 147.734 13.2383C149.173 13.2383 150.335 13.7363 151.221 14.7324C152.113 15.7285 152.559 17.0534 152.559 18.707V18.834C152.559 19.8626 152.36 20.7871 151.963 21.6074C151.572 22.4212 151.009 23.056 150.273 23.5117C149.544 23.9674 148.704 24.1953 147.754 24.1953C146.322 24.1953 145.16 23.6973 144.268 22.7012C143.382 21.7051 142.939 20.3867 142.939 18.7461V18.6191ZM144.756 18.834C144.756 20.0059 145.026 20.9466 145.566 21.6562C146.113 22.3659 146.842 22.7207 147.754 22.7207C148.672 22.7207 149.401 22.3626 149.941 21.6465C150.482 20.9238 150.752 19.9147 150.752 18.6191C150.752 17.4603 150.475 16.5228 149.922 15.8066C149.375 15.084 148.646 14.7227 147.734 14.7227C146.842 14.7227 146.123 15.0775 145.576 15.7871C145.029 16.4967 144.756 17.5124 144.756 18.834ZM160.977 21.1973C160.977 20.709 160.791 20.3314 160.42 20.0645C160.055 19.791 159.414 19.5566 158.496 19.3613C157.585 19.166 156.859 18.9316 156.318 18.6582C155.785 18.3848 155.387 18.0592 155.127 17.6816C154.873 17.304 154.746 16.8548 154.746 16.334C154.746 15.4681 155.111 14.7357 155.84 14.1367C156.576 13.5378 157.513 13.2383 158.652 13.2383C159.85 13.2383 160.82 13.5475 161.562 14.166C162.311 14.7845 162.686 15.5755 162.686 16.5391H160.869C160.869 16.0443 160.658 15.6178 160.234 15.2598C159.818 14.9017 159.29 14.7227 158.652 14.7227C157.995 14.7227 157.48 14.8659 157.109 15.1523C156.738 15.4388 156.553 15.8132 156.553 16.2754C156.553 16.7116 156.725 17.0404 157.07 17.2617C157.415 17.4831 158.037 17.6947 158.936 17.8965C159.84 18.0983 160.573 18.3392 161.133 18.6191C161.693 18.8991 162.106 19.2376 162.373 19.6348C162.646 20.0254 162.783 20.5039 162.783 21.0703C162.783 22.0143 162.406 22.7728 161.65 23.3457C160.895 23.9121 159.915 24.1953 158.711 24.1953C157.865 24.1953 157.116 24.0456 156.465 23.7461C155.814 23.4466 155.303 23.0299 154.932 22.4961C154.567 21.9557 154.385 21.373 154.385 20.748H156.191C156.224 21.3535 156.465 21.8353 156.914 22.1934C157.37 22.5449 157.969 22.7207 158.711 22.7207C159.395 22.7207 159.941 22.584 160.352 22.3105C160.768 22.0306 160.977 21.6595 160.977 21.1973Z" fill="#3871A7"/>
</svg>
