<svg width="400" height="251" viewBox="0 0 400 251" fill="none" xmlns="http://www.w3.org/2000/svg">
<path opacity="0.3" d="M400 57.253V101.815L399.247 100.693L345.2 20.2805L344.692 19.5272H374.643L375.148 20.2805L399.247 56.1305L400 57.253Z" fill="#3871A7"/>
<path opacity="0.3" d="M186.667 200.647C191.747 215.935 189.963 230.29 189.963 230.29C189.963 230.29 179.943 219.857 174.863 204.569C169.783 189.281 171.567 174.926 171.567 174.926C171.567 174.926 181.587 185.358 186.667 200.647Z" fill="#3871A7"/>
<path opacity="0.3" d="M193.259 200.647C188.179 215.935 189.963 230.29 189.963 230.29C189.963 230.29 199.984 219.857 205.064 204.569C210.144 189.281 208.359 174.926 208.359 174.926C208.359 174.926 198.339 185.358 193.259 200.647Z" fill="#3871A7"/>
<path opacity="0.3" d="M195.305 200.812C195.646 216.919 189.704 230.107 189.704 230.107C189.704 230.107 183.21 217.182 182.869 201.075C182.529 184.968 188.471 171.78 188.471 171.78C188.471 171.78 194.965 184.705 195.305 200.812Z" fill="#3F3D56"/>
<path opacity="0.3" d="M189.7 231.077C197.635 231.077 204.066 230.724 204.066 230.289C204.066 229.854 197.635 229.501 189.7 229.501C181.766 229.501 175.334 229.854 175.334 230.289C175.334 230.724 181.766 231.077 189.7 231.077Z" fill="#3F3D56"/>
<path opacity="0.3" d="M52.7355 230.534C57.2373 230.534 60.8868 226.885 60.8868 222.383C60.8868 217.881 57.2373 214.232 52.7355 214.232C48.2337 214.232 44.5842 217.881 44.5842 222.383C44.5842 226.885 48.2337 230.534 52.7355 230.534Z" fill="#F2F2F2"/>
<path opacity="0.3" d="M54.2309 209.196C51.3085 209.2 48.5071 210.363 46.441 212.429C44.375 214.496 43.213 217.298 43.21 220.22C43.21 220.281 43.21 220.341 43.2137 220.401C43.2496 222.436 43.8469 224.421 44.9395 226.138C46.0322 227.855 47.5778 229.236 49.4059 230.13C50.053 230.449 50.7306 230.701 51.4286 230.883C53.267 231.366 55.1986 231.366 57.037 230.883C57.7349 230.701 58.4126 230.449 59.0596 230.13C61.301 229.038 63.106 227.219 64.1801 224.969C65.2542 222.719 65.5339 220.171 64.9735 217.742C64.4131 215.312 63.0458 213.145 61.0948 211.593C59.1437 210.04 56.7241 209.195 54.2309 209.196ZM56.9277 230.13C56.0492 230.372 55.142 230.493 54.2309 230.492C54.0501 230.492 53.8693 230.488 53.6923 230.477H53.6885C52.961 230.441 52.2398 230.324 51.5378 230.13C50.0538 229.724 48.6796 228.99 47.5162 227.983C46.3528 226.976 45.4296 225.721 44.8145 224.311V224.307C43.9815 222.386 43.7556 220.257 44.1671 218.204C44.5787 216.151 45.6079 214.273 47.1169 212.822C48.6258 211.37 50.5424 210.415 52.6097 210.084C54.677 209.752 56.7962 210.061 58.6832 210.968C60.5701 211.875 62.1347 213.337 63.1671 215.159C64.1995 216.98 64.6505 219.074 64.4595 221.159C64.2685 223.243 63.4447 225.22 62.0985 226.824C60.7523 228.427 58.9481 229.581 56.9277 230.13V230.13Z" fill="#3F3D56"/>
<path opacity="0.3" d="M146.892 166.997H85.8735V177.832H146.892V166.997Z" fill="#F2F2F2"/>
<path opacity="0.3" d="M337.102 65.6764H276.084V76.5114H337.102V65.6764Z" fill="#F2F2F2"/>
<path opacity="0.3" d="M337.102 89.4056H276.084V100.241H337.102V89.4056Z" fill="#F2F2F2"/>
<path opacity="0.3" d="M337.102 112.382H276.084V123.217H337.102V112.382Z" fill="#F2F2F2"/>
<path opacity="0.3" d="M337.102 135.358H276.084V146.193H337.102V135.358Z" fill="#F2F2F2"/>
<path opacity="0.3" d="M337.102 159.087H276.084V169.922H337.102V159.087Z" fill="#F2F2F2"/>
<path opacity="0.3" d="M337.102 182.816H276.084V193.651H337.102V182.816Z" fill="#F2F2F2"/>
<path opacity="0.3" d="M85.4968 163.142V178.208H166.854V163.142H85.4968ZM166.101 177.455H86.2501V163.895H166.101V177.455Z" fill="#3F3D56"/>
<path opacity="0.3" d="M221.093 82.1612C223.173 82.1612 224.859 80.4749 224.859 78.3947C224.859 76.3145 223.173 74.6281 221.093 74.6281C219.013 74.6281 217.326 76.3145 217.326 78.3947C217.326 80.4749 219.013 82.1612 221.093 82.1612Z" fill="#3F3D56"/>
<path opacity="0.3" d="M221.093 105.514C223.173 105.514 224.859 103.827 224.859 101.747C224.859 99.6671 223.173 97.9807 221.093 97.9807C219.013 97.9807 217.326 99.6671 217.326 101.747C217.326 103.827 219.013 105.514 221.093 105.514Z" fill="#3F3D56"/>
<path opacity="0.3" d="M221.093 128.866C223.173 128.866 224.859 127.18 224.859 125.1C224.859 123.02 223.173 121.333 221.093 121.333C219.013 121.333 217.326 123.02 217.326 125.1C217.326 127.18 219.013 128.866 221.093 128.866Z" fill="#3F3D56"/>
<path opacity="0.3" d="M221.093 152.219C223.173 152.219 224.859 150.533 224.859 148.452C224.859 146.372 223.173 144.686 221.093 144.686C219.013 144.686 217.326 146.372 217.326 148.452C217.326 150.533 219.013 152.219 221.093 152.219Z" fill="#3F3D56"/>
<path opacity="0.3" d="M221.093 175.572C223.173 175.572 224.859 173.885 224.859 171.805C224.859 169.725 223.173 168.039 221.093 168.039C219.013 168.039 217.326 169.725 217.326 171.805C217.326 173.885 219.013 175.572 221.093 175.572Z" fill="#3F3D56"/>
<path opacity="0.3" d="M221.093 198.924C223.173 198.924 224.859 197.238 224.859 195.158C224.859 193.077 223.173 191.391 221.093 191.391C219.013 191.391 217.326 193.077 217.326 195.158C217.326 197.238 219.013 198.924 221.093 198.924Z" fill="#3F3D56"/>
<path opacity="0.3" d="M358.195 78.018H254.992V78.7713H358.195V78.018Z" fill="#3F3D56"/>
<path opacity="0.3" d="M358.195 101.371H254.992V102.124H358.195V101.371Z" fill="#3F3D56"/>
<path opacity="0.3" d="M358.195 124.723H254.992V125.477H358.195V124.723Z" fill="#3F3D56"/>
<path opacity="0.3" d="M358.195 148.076H254.992V148.829H358.195V148.076Z" fill="#3F3D56"/>
<path opacity="0.3" d="M358.195 171.428H254.992V172.182H358.195V171.428Z" fill="#3F3D56"/>
<path opacity="0.3" d="M358.195 194.781H254.992V195.534H358.195V194.781Z" fill="#3F3D56"/>
<path opacity="0.3" d="M376.787 216.599L366.886 208.476L375.009 198.576L384.91 206.698L376.787 216.599ZM367.946 208.372L376.682 215.539L383.849 206.803L375.113 199.636L367.946 208.372Z" fill="#3F3D56"/>
<path opacity="0.3" d="M233.341 39.5156L224.022 31.8709L216.378 41.1893L225.696 48.834L233.341 39.5156Z" fill="#3871A7"/>
<path opacity="0.3" d="M176.271 101.747C176.288 112.371 172.909 122.723 166.628 131.292C165.913 132.271 165.163 133.228 164.376 134.151C162.153 136.771 159.666 139.157 156.956 141.27C156.685 141.481 156.41 141.691 156.131 141.899C155.114 142.659 154.068 143.381 152.994 144.064C152.666 144.272 152.338 144.475 152.007 144.671C151.257 145.127 150.494 145.561 149.717 145.974C149.336 146.177 148.952 146.377 148.568 146.569C140.673 150.508 131.878 152.294 123.073 151.745C114.267 151.197 105.762 148.335 98.4163 143.447C98.0246 143.191 97.6404 142.927 97.26 142.656C96.5444 142.151 95.84 141.624 95.1545 141.081C94.5217 140.584 93.904 140.068 93.2976 139.541C90.1049 136.765 87.2764 133.596 84.8793 130.109C84.4123 129.428 83.9603 128.735 83.5234 128.03C79.4605 121.437 76.9816 113.991 76.2815 106.278C75.5814 98.5648 76.6792 90.7944 79.4885 83.5771C82.2979 76.3598 86.7423 69.8921 92.4727 64.6821C98.2031 59.4721 105.063 55.6617 112.515 53.5501C119.966 51.4385 127.806 51.0833 135.418 52.5123C143.029 53.9414 150.206 57.1158 156.384 61.7862C162.562 66.4566 167.573 72.4959 171.024 79.4295C174.475 86.3632 176.271 94.0024 176.271 101.747Z" fill="#3F3D56"/>
<path opacity="0.3" d="M124.289 99.2756C131.827 99.2756 137.937 93.1652 137.937 85.6278C137.937 78.0903 131.827 71.98 124.289 71.98C116.752 71.98 110.641 78.0903 110.641 85.6278C110.641 93.1652 116.752 99.2756 124.289 99.2756Z" fill="#A0616A"/>
<path opacity="0.3" d="M114.906 92.1673C114.906 92.1673 119.456 102.403 113.2 106.384C106.945 110.364 123.436 126.855 123.436 126.855L141.633 107.521C141.633 107.521 131.966 101.266 133.672 91.03L114.906 92.1673Z" fill="#A0616A"/>
<path opacity="0.3" d="M156.956 141.27C156.685 141.481 156.41 141.692 156.131 141.899C155.114 142.66 154.068 143.381 152.993 144.064C152.666 144.272 152.338 144.475 152.007 144.671L151.867 143.914L153.178 143.232L156.956 141.27Z" fill="#A0616A"/>
<path opacity="0.3" d="M152.007 144.671C152.338 144.475 152.666 144.272 152.994 144.064L153.005 143.914L153.178 143.232L160.399 114.915L138.511 104.843L125.712 112.64L114.247 105.57C114.247 105.57 107.512 105.815 105.806 107.521C104.469 108.859 97.9115 111.936 95.1242 113.209C94.3483 113.563 93.8662 113.778 93.8662 113.778C93.8662 113.778 94.2956 126.682 95.1544 141.081C95.8399 141.624 96.5442 142.151 97.2599 142.656C97.6403 142.927 98.0245 143.191 98.4162 143.447C105.761 148.335 114.267 151.197 123.073 151.745C131.878 152.294 140.673 150.508 148.568 146.569L152.007 144.671Z" fill="#3871A7"/>
<path opacity="0.3" d="M98.4162 113.209V143.447C98.0244 143.191 97.6402 142.927 97.2598 142.656C96.5442 142.151 95.8398 141.624 95.1543 141.081C94.5215 140.584 93.9038 140.068 93.2974 139.541C90.1048 136.765 87.2762 133.596 84.8792 130.109C84.4121 129.428 83.9601 128.735 83.5232 128.03C83.8923 126.817 84.3066 125.478 84.7662 124.011C87.6099 114.915 93.8661 113.209 93.8661 113.209H98.4162Z" fill="#3871A7"/>
<path opacity="0.3" d="M152.007 144.671C152.338 144.475 152.666 144.272 152.994 144.064C154.067 143.383 155.113 142.661 156.131 141.899C156.41 141.691 156.685 141.481 156.956 141.27C159.666 139.157 162.153 136.771 164.376 134.151C165.163 133.228 165.913 132.271 166.628 131.292C164.312 124.053 160.399 114.915 160.399 114.915L152.436 114.346C152.436 114.346 149.204 140.215 148.568 146.569L152.007 144.671Z" fill="#3871A7"/>
<path opacity="0.3" d="M115.921 69.8311C115.239 70.4123 114.526 70.9575 113.787 71.4646C112.854 72.2382 111.993 73.0937 111.213 74.021L110.333 75.0062C109.584 75.8447 108.789 76.8016 108.821 77.9253C108.833 78.3422 108.961 78.7468 109.011 79.1609C109.21 80.8036 108.206 82.6091 109.033 84.0426C109.272 84.4571 109.641 84.7811 109.905 85.1805C110.24 85.6923 110.388 86.3041 110.325 86.9126C111.213 86.949 111.942 86.1531 112.22 85.309C112.499 84.4648 112.461 83.5529 112.597 82.6744C112.733 81.7959 113.114 80.8657 113.912 80.4746C115.615 79.6401 117.571 81.8097 119.389 81.269C120.658 80.8915 121.328 79.318 122.625 79.0541C123.554 78.8653 124.448 79.4172 125.312 79.8083C126.175 80.1995 127.339 80.3806 127.949 79.6555C128.353 79.1754 128.397 78.4062 128.933 78.0799C129.575 77.689 130.38 78.2333 130.866 78.8069C131.353 79.3805 131.89 80.0819 132.642 80.061C133.639 80.0333 134.403 78.7051 135.35 79.0202C136.418 79.3759 135.927 81.0857 136.575 82.0065C137.123 82.785 138.271 82.7391 139.214 82.6105C139.373 82.6266 139.534 82.6021 139.681 82.5393C139.828 82.4765 139.957 82.3774 140.055 82.2513C140.153 82.1252 140.218 81.9762 140.243 81.8183C140.268 81.6604 140.253 81.4987 140.198 81.3483L139.804 76.1233C139.803 75.7631 139.724 75.4076 139.573 75.0805C139.299 74.5835 138.731 74.3318 138.345 73.9158C137.532 73.0413 137.571 71.5081 136.561 70.8722C136.037 70.542 135.351 70.5519 134.83 70.2158C134.162 69.7849 133.947 68.9218 133.48 68.2793C132.811 67.3607 131.642 66.9348 130.511 66.818C129.381 66.7011 128.24 66.8421 127.105 66.805C124.796 66.7297 122.487 66.0799 120.167 66.4603C118.142 66.7922 117.292 68.5099 115.921 69.8311Z" fill="#2F2E41"/>
<path opacity="0.3" d="M384.948 67.248C385.818 67.248 386.524 66.5421 386.524 65.6713C386.524 64.8004 385.818 64.0945 384.948 64.0945C384.077 64.0945 383.371 64.8004 383.371 65.6713C383.371 66.5421 384.077 67.248 384.948 67.248Z" fill="#3F3D56"/>
<path opacity="0.3" d="M374.025 48.0386C374.895 48.0386 375.601 47.3327 375.601 46.4618C375.601 45.591 374.895 44.8851 374.025 44.8851C373.154 44.8851 372.448 45.591 372.448 46.4618C372.448 47.3327 373.154 48.0386 374.025 48.0386Z" fill="#3F3D56"/>
<path opacity="0.3" d="M369.505 27.3226C370.376 27.3226 371.081 26.6166 371.081 25.7458C371.081 24.875 370.376 24.169 369.505 24.169C368.634 24.169 367.928 24.875 367.928 25.7458C367.928 26.6166 368.634 27.3226 369.505 27.3226Z" fill="#3F3D56"/>
</svg>
