<svg width="41" height="41" viewBox="0 0 41 41" fill="none" xmlns="http://www.w3.org/2000/svg">
<path d="M37.3436 31.5663V27.0704H29.9459V24.8901C31.8749 24.3724 33.2996 22.6095 33.2996 20.5193C33.2996 18.4292 31.875 16.6663 29.9459 16.1486V11.0845H21.8891V9.55989C23.8181 9.04215 25.2427 7.27926 25.2427 5.18911C25.2427 2.69372 23.2126 0.663483 20.7172 0.663483C18.2218 0.663483 16.1916 2.69364 16.1916 5.18911C16.1916 7.27926 17.6163 9.04215 19.5453 9.55989V11.0845H11.6764V16.1486C9.74742 16.6663 8.32273 18.4292 8.32273 20.5193C8.32273 22.6095 9.74734 24.3724 11.6764 24.8901V27.0704H4.05094V31.5663C2.12187 32.084 0.697266 33.8469 0.697266 35.9372C0.697266 38.4325 2.72742 40.4627 5.22281 40.4627C7.7182 40.4627 9.74836 38.4326 9.74836 35.9372C9.74836 33.847 8.32367 32.084 6.39469 31.5663V29.414H19.5455V31.5707C17.6245 32.0939 16.2075 33.8527 16.2075 35.9372C16.2075 38.4325 18.2377 40.4627 20.733 40.4627C23.2284 40.4627 25.2586 38.4326 25.2586 35.9372C25.2586 33.8412 23.8263 32.0741 21.8891 31.5618V29.414H35.0001V31.5663C33.071 32.084 31.6464 33.847 31.6464 35.9372C31.6464 38.4325 33.6766 40.4627 36.172 40.4627C38.6673 40.4627 40.6973 38.4326 40.6973 35.9372C40.6973 33.8469 39.2726 32.084 37.3436 31.5663ZM27.6022 16.1485C25.6731 16.6662 24.2485 18.4291 24.2485 20.5193C24.2485 22.6094 25.6732 24.3723 27.6022 24.89V27.0703H14.0201V24.89C15.9491 24.3723 17.3737 22.6094 17.3737 20.5193C17.3737 18.4291 15.9491 16.6662 14.0201 16.1485V13.4281H27.6023V16.1485H27.6022Z" fill="#3871A7"/>
</svg>
