<svg width="179" height="27" viewBox="0 0 179 27" fill="none" xmlns="http://www.w3.org/2000/svg">
<path d="M36.6172 20V7.20312H40.1943C41.2432 7.20312 42.1836 7.44336 43.0156 7.92383C43.8477 8.39844 44.4951 9.08105 44.958 9.97168C45.4268 10.8623 45.6611 11.876 45.6611 13.0127V14.1904C45.6611 15.333 45.4297 16.3467 44.9668 17.2314C44.5039 18.1162 43.8506 18.7988 43.0068 19.2793C42.1689 19.7598 41.2051 20 40.1152 20H36.6172ZM37.6982 8.12598V19.0859H40.124C41.4717 19.0859 42.5527 18.6406 43.3672 17.75C44.1816 16.8535 44.5889 15.6436 44.5889 14.1201V12.9951C44.5889 11.5244 44.1875 10.3467 43.3848 9.46191C42.582 8.57715 41.5244 8.13184 40.2119 8.12598H37.6982ZM52.4786 20.1758C51.67 20.1758 50.9376 19.9766 50.2814 19.5781C49.631 19.1797 49.1241 18.626 48.7609 17.917C48.3976 17.2021 48.2159 16.4023 48.2159 15.5176V15.1396C48.2159 14.2256 48.3917 13.4023 48.7433 12.6699C49.1007 11.9375 49.5958 11.3633 50.2286 10.9473C50.8614 10.5254 51.547 10.3145 52.2853 10.3145C53.4396 10.3145 54.3536 10.71 55.0275 11.501C55.7071 12.2861 56.047 13.3613 56.047 14.7266V15.3154H49.2618V15.5176C49.2618 16.5957 49.5695 17.4951 50.1847 18.2158C50.8058 18.9307 51.5851 19.2881 52.5226 19.2881C53.0851 19.2881 53.5802 19.1855 54.0079 18.9805C54.4415 18.7754 54.8341 18.4473 55.1857 17.9961L55.8448 18.4971C55.0714 19.6162 53.9493 20.1758 52.4786 20.1758ZM52.2853 11.2109C51.4943 11.2109 50.8263 11.501 50.2814 12.0811C49.7423 12.6611 49.4142 13.4404 49.297 14.4189H55.0011V14.3047C54.9718 13.3906 54.7111 12.6465 54.2189 12.0723C53.7267 11.498 53.0821 11.2109 52.2853 11.2109ZM64.4202 17.583C64.4202 17.0615 64.2092 16.6426 63.7873 16.3262C63.3713 16.0098 62.7414 15.7637 61.8977 15.5879C61.0539 15.4062 60.3977 15.2012 59.9289 14.9727C59.4661 14.7383 59.1204 14.4541 58.8918 14.1201C58.6692 13.7861 58.5579 13.3818 58.5579 12.9072C58.5579 12.1572 58.8713 11.5391 59.4983 11.0527C60.1252 10.5605 60.928 10.3145 61.9065 10.3145C62.967 10.3145 63.8166 10.5781 64.4553 11.1055C65.0998 11.627 65.4221 12.3096 65.4221 13.1533H64.3674C64.3674 12.5967 64.133 12.1338 63.6643 11.7646C63.2014 11.3955 62.6155 11.2109 61.9065 11.2109C61.2151 11.2109 60.6584 11.3662 60.2366 11.6768C59.8205 11.9814 59.6125 12.3799 59.6125 12.8721C59.6125 13.3467 59.7854 13.7158 60.1311 13.9795C60.4827 14.2373 61.1184 14.4746 62.0383 14.6914C62.9641 14.9082 63.6555 15.1396 64.1125 15.3857C64.5754 15.6318 64.9182 15.9277 65.1409 16.2734C65.3635 16.6191 65.4748 17.0381 65.4748 17.5303C65.4748 18.333 65.1496 18.9746 64.4993 19.4551C63.8547 19.9355 63.011 20.1758 61.968 20.1758C60.8606 20.1758 59.9612 19.9092 59.2698 19.376C58.5842 18.8369 58.2414 18.1572 58.2414 17.3369H59.2961C59.3371 17.9521 59.595 18.4326 60.0696 18.7783C60.55 19.1182 61.1829 19.2881 61.968 19.2881C62.7004 19.2881 63.2922 19.127 63.7434 18.8047C64.1946 18.4824 64.4202 18.0752 64.4202 17.583ZM69.4359 10.4902L69.4711 12.0371C69.8226 11.4629 70.2621 11.0322 70.7894 10.7451C71.3168 10.458 71.9027 10.3145 72.5472 10.3145C74.0472 10.3145 74.9994 10.9297 75.4037 12.1602C75.7435 11.5684 76.1976 11.1143 76.766 10.7979C77.3343 10.4756 77.9613 10.3145 78.6468 10.3145C80.6859 10.3145 81.7259 11.4277 81.767 13.6543V20H80.7123V13.7334C80.7064 12.8838 80.5218 12.2539 80.1586 11.8438C79.8011 11.4336 79.2152 11.2285 78.4007 11.2285C77.6449 11.2402 77.0062 11.4863 76.4847 11.9668C75.9632 12.4414 75.6732 13.0215 75.6146 13.707V20H74.5599V13.6543C74.5541 12.8398 74.3607 12.2334 73.9798 11.835C73.6048 11.4307 73.0248 11.2285 72.2396 11.2285C71.5775 11.2285 71.0091 11.4189 70.5345 11.7998C70.0599 12.1748 69.7084 12.7344 69.4798 13.4785V20H68.4252V10.4902H69.4359ZM91.0718 20C90.9663 19.7012 90.8989 19.2588 90.8696 18.6729C90.5005 19.1533 90.0288 19.5254 89.4546 19.7891C88.8862 20.0469 88.2827 20.1758 87.644 20.1758C86.73 20.1758 85.9888 19.9209 85.4204 19.4111C84.8579 18.9014 84.5766 18.2568 84.5766 17.4775C84.5766 16.5518 84.9604 15.8193 85.728 15.2803C86.5014 14.7412 87.5766 14.4717 88.9536 14.4717H90.8608V13.3906C90.8608 12.7109 90.6499 12.1777 90.228 11.791C89.812 11.3984 89.2026 11.2021 88.3999 11.2021C87.6675 11.2021 87.061 11.3896 86.5805 11.7646C86.1001 12.1396 85.8598 12.5908 85.8598 13.1182L84.8052 13.1094C84.8052 12.3535 85.1567 11.7002 85.8598 11.1494C86.563 10.5928 87.4272 10.3145 88.4526 10.3145C89.5132 10.3145 90.3481 10.5811 90.9575 11.1143C91.5727 11.6416 91.8891 12.3799 91.9067 13.3291V17.8291C91.9067 18.749 92.0034 19.4375 92.1968 19.8945V20H91.0718ZM87.7671 19.2441C88.4702 19.2441 89.0971 19.0742 89.6479 18.7344C90.2046 18.3945 90.6089 17.9404 90.8608 17.3721V15.2803H88.98C87.9311 15.292 87.1108 15.4854 86.519 15.8604C85.9272 16.2295 85.6313 16.7393 85.6313 17.3896C85.6313 17.9229 85.8276 18.3652 86.2202 18.7168C86.6186 19.0684 87.1343 19.2441 87.7671 19.2441ZM99.7438 11.3867C99.5211 11.3457 99.2838 11.3252 99.0318 11.3252C98.3756 11.3252 97.8189 11.5098 97.3619 11.8789C96.9107 12.2422 96.5885 12.7725 96.3951 13.4697V20H95.3492V10.4902H96.3775L96.3951 12.002C96.9518 10.877 97.8453 10.3145 99.0758 10.3145C99.3688 10.3145 99.6002 10.3525 99.7701 10.4287L99.7438 11.3867ZM105.384 19.2881C106.116 19.2881 106.728 19.083 107.22 18.6729C107.718 18.2568 107.988 17.7207 108.029 17.0645H109.04C109.01 17.6445 108.829 18.1748 108.495 18.6553C108.161 19.1299 107.716 19.502 107.159 19.7715C106.608 20.041 106.016 20.1758 105.384 20.1758C104.135 20.1758 103.145 19.7422 102.413 18.875C101.686 18.0078 101.323 16.8418 101.323 15.377V15.0605C101.323 14.123 101.487 13.2939 101.815 12.5732C102.143 11.8525 102.612 11.2959 103.221 10.9033C103.837 10.5107 104.554 10.3145 105.375 10.3145C106.418 10.3145 107.276 10.625 107.95 11.2461C108.63 11.8672 108.993 12.6846 109.04 13.6982H108.029C107.982 12.9541 107.713 12.3535 107.22 11.8965C106.734 11.4395 106.119 11.2109 105.375 11.2109C104.426 11.2109 103.687 11.5537 103.16 12.2393C102.638 12.9248 102.378 13.8857 102.378 15.1221V15.4297C102.378 16.6426 102.638 17.5889 103.16 18.2686C103.687 18.9482 104.428 19.2881 105.384 19.2881ZM117.782 20C117.677 19.7012 117.609 19.2588 117.58 18.6729C117.211 19.1533 116.739 19.5254 116.165 19.7891C115.597 20.0469 114.993 20.1758 114.354 20.1758C113.44 20.1758 112.699 19.9209 112.131 19.4111C111.568 18.9014 111.287 18.2568 111.287 17.4775C111.287 16.5518 111.671 15.8193 112.438 15.2803C113.212 14.7412 114.287 14.4717 115.664 14.4717H117.571V13.3906C117.571 12.7109 117.36 12.1777 116.938 11.791C116.522 11.3984 115.913 11.2021 115.11 11.2021C114.378 11.2021 113.771 11.3896 113.291 11.7646C112.81 12.1396 112.57 12.5908 112.57 13.1182L111.515 13.1094C111.515 12.3535 111.867 11.7002 112.57 11.1494C113.273 10.5928 114.138 10.3145 115.163 10.3145C116.223 10.3145 117.058 10.5811 117.668 11.1143C118.283 11.6416 118.599 12.3799 118.617 13.3291V17.8291C118.617 18.749 118.714 19.4375 118.907 19.8945V20H117.782ZM114.477 19.2441C115.181 19.2441 115.807 19.0742 116.358 18.7344C116.915 18.3945 117.319 17.9404 117.571 17.3721V15.2803H115.69C114.641 15.292 113.821 15.4854 113.229 15.8604C112.638 16.2295 112.342 16.7393 112.342 17.3896C112.342 17.9229 112.538 18.3652 112.931 18.7168C113.329 19.0684 113.845 19.2441 114.477 19.2441ZM126.454 11.3867C126.231 11.3457 125.994 11.3252 125.742 11.3252C125.086 11.3252 124.529 11.5098 124.072 11.8789C123.621 12.2422 123.299 12.7725 123.105 13.4697V20H122.06V10.4902H123.088L123.105 12.002C123.662 10.877 124.556 10.3145 125.786 10.3145C126.079 10.3145 126.311 10.3525 126.48 10.4287L126.454 11.3867ZM135.396 8.05566V10.4902H137.364V11.3516H135.396V17.6885C135.396 18.2158 135.489 18.6084 135.677 18.8662C135.87 19.124 136.19 19.2529 136.635 19.2529C136.811 19.2529 137.095 19.2236 137.488 19.165L137.531 20.0264C137.256 20.126 136.881 20.1758 136.406 20.1758C135.686 20.1758 135.161 19.9678 134.833 19.5518C134.505 19.1299 134.341 18.5117 134.341 17.6973V11.3516H132.592V10.4902H134.341V8.05566H135.396ZM139.418 15.1045C139.418 14.1904 139.594 13.3672 139.946 12.6348C140.303 11.9023 140.804 11.334 141.449 10.9297C142.099 10.5195 142.834 10.3145 143.655 10.3145C144.92 10.3145 145.946 10.7598 146.731 11.6504C147.516 12.5352 147.909 13.71 147.909 15.1748V15.3945C147.909 16.3145 147.73 17.1436 147.372 17.8818C147.021 18.6143 146.523 19.1797 145.878 19.5781C145.234 19.9766 144.498 20.1758 143.672 20.1758C142.412 20.1758 141.387 19.7334 140.596 18.8486C139.811 17.958 139.418 16.7803 139.418 15.3154V15.1045ZM140.473 15.3945C140.473 16.5312 140.766 17.4658 141.352 18.1982C141.944 18.9248 142.717 19.2881 143.672 19.2881C144.621 19.2881 145.389 18.9248 145.975 18.1982C146.567 17.4658 146.863 16.502 146.863 15.3066V15.1045C146.863 14.3779 146.728 13.7129 146.458 13.1094C146.189 12.5059 145.811 12.04 145.325 11.7119C144.838 11.3779 144.282 11.2109 143.655 11.2109C142.717 11.2109 141.952 11.5801 141.361 12.3184C140.769 13.0508 140.473 14.0117 140.473 15.2012V15.3945ZM150.296 15.1572C150.296 13.6807 150.624 12.5059 151.281 11.6328C151.943 10.7539 152.839 10.3145 153.97 10.3145C155.253 10.3145 156.232 10.8213 156.906 11.835V6.5H157.952V20H156.967L156.923 18.7344C156.249 19.6953 155.259 20.1758 153.953 20.1758C152.857 20.1758 151.972 19.7363 151.298 18.8574C150.63 17.9727 150.296 16.7803 150.296 15.2803V15.1572ZM151.36 15.3418C151.36 16.5547 151.603 17.5127 152.089 18.2158C152.576 18.9131 153.261 19.2617 154.146 19.2617C155.441 19.2617 156.361 18.6904 156.906 17.5479V13.083C156.361 11.8467 155.447 11.2285 154.164 11.2285C153.279 11.2285 152.59 11.5771 152.098 12.2744C151.606 12.9658 151.36 13.9883 151.36 15.3418ZM160.77 15.1045C160.77 14.1904 160.946 13.3672 161.297 12.6348C161.655 11.9023 162.156 11.334 162.8 10.9297C163.451 10.5195 164.186 10.3145 165.006 10.3145C166.272 10.3145 167.297 10.7598 168.083 11.6504C168.868 12.5352 169.26 13.71 169.26 15.1748V15.3945C169.26 16.3145 169.082 17.1436 168.724 17.8818C168.373 18.6143 167.875 19.1797 167.23 19.5781C166.586 19.9766 165.85 20.1758 165.024 20.1758C163.764 20.1758 162.739 19.7334 161.948 18.8486C161.163 17.958 160.77 16.7803 160.77 15.3154V15.1045ZM161.825 15.3945C161.825 16.5312 162.118 17.4658 162.704 18.1982C163.295 18.9248 164.069 19.2881 165.024 19.2881C165.973 19.2881 166.741 18.9248 167.327 18.1982C167.919 17.4658 168.214 16.502 168.214 15.3066V15.1045C168.214 14.3779 168.08 13.7129 167.81 13.1094C167.541 12.5059 167.163 12.04 166.676 11.7119C166.19 11.3779 165.633 11.2109 165.006 11.2109C164.069 11.2109 163.304 11.5801 162.712 12.3184C162.121 13.0508 161.825 14.0117 161.825 15.2012V15.3945ZM177.765 17.583C177.765 17.0615 177.554 16.6426 177.133 16.3262C176.716 16.0098 176.087 15.7637 175.243 15.5879C174.399 15.4062 173.743 15.2012 173.274 14.9727C172.811 14.7383 172.466 14.4541 172.237 14.1201C172.014 13.7861 171.903 13.3818 171.903 12.9072C171.903 12.1572 172.216 11.5391 172.843 11.0527C173.47 10.5605 174.273 10.3145 175.252 10.3145C176.312 10.3145 177.162 10.5781 177.8 11.1055C178.445 11.627 178.767 12.3096 178.767 13.1533H177.713C177.713 12.5967 177.478 12.1338 177.009 11.7646C176.547 11.3955 175.961 11.2109 175.252 11.2109C174.56 11.2109 174.004 11.3662 173.582 11.6768C173.166 11.9814 172.958 12.3799 172.958 12.8721C172.958 13.3467 173.131 13.7158 173.476 13.9795C173.828 14.2373 174.464 14.4746 175.383 14.6914C176.309 14.9082 177.001 15.1396 177.458 15.3857C177.921 15.6318 178.263 15.9277 178.486 16.2734C178.709 16.6191 178.82 17.0381 178.82 17.5303C178.82 18.333 178.495 18.9746 177.844 19.4551C177.2 19.9355 176.356 20.1758 175.313 20.1758C174.206 20.1758 173.306 19.9092 172.615 19.376C171.929 18.8369 171.587 18.1572 171.587 17.3369H172.641C172.682 17.9521 172.94 18.4326 173.415 18.7783C173.895 19.1182 174.528 19.2881 175.313 19.2881C176.046 19.2881 176.637 19.127 177.089 18.8047C177.54 18.4824 177.765 18.0752 177.765 17.583Z" fill="#3871A7"/>
<rect width="28" height="27" rx="5" fill="#3871A7"/>
<path d="M5 13H23" stroke="white" stroke-width="3"/>
</svg>
