<svg width="331" height="68" viewBox="0 0 331 68" fill="none" xmlns="http://www.w3.org/2000/svg">
<path d="M91.91 27H93.379V21.0005L96.2455 27H96.8695L99.7425 21.0005V27H101.205V17.64H99.7945L96.5575 24.27L93.3205 17.64H91.91V27ZM103.161 18.914H104.728V17.4775H103.161V18.914ZM103.161 27H104.728V19.98H103.161V27ZM109.723 27.195C110.507 27.195 111.17 27.0043 111.712 26.623C112.254 26.2373 112.633 25.687 112.85 24.972L111.251 24.6145C111.129 24.9742 110.947 25.2493 110.705 25.44C110.466 25.6307 110.139 25.726 109.723 25.726C109.134 25.726 108.69 25.5202 108.391 25.1085C108.096 24.6968 107.946 24.1573 107.942 23.49C107.946 22.8443 108.089 22.3113 108.371 21.891C108.657 21.4663 109.108 21.254 109.723 21.254C110.083 21.254 110.403 21.3602 110.685 21.5725C110.967 21.7805 111.168 22.073 111.29 22.45L112.85 22.0275C112.685 21.3342 112.325 20.7882 111.771 20.3895C111.216 19.9865 110.54 19.785 109.743 19.785C109.032 19.785 108.419 19.9453 107.903 20.266C107.387 20.5823 106.989 21.02 106.707 21.579C106.43 22.1337 106.289 22.7707 106.285 23.49C106.289 24.1963 106.425 24.829 106.694 25.388C106.967 25.947 107.359 26.389 107.871 26.714C108.382 27.0347 108.999 27.195 109.723 27.195ZM114.139 27H115.725V23.3925C115.725 22.8248 115.805 22.3872 115.966 22.0795C116.13 21.7675 116.338 21.553 116.59 21.436C116.845 21.3147 117.105 21.254 117.37 21.254C117.742 21.254 118.039 21.3363 118.26 21.501C118.481 21.6613 118.644 21.8672 118.748 22.1185C118.856 22.3655 118.925 22.6233 118.956 22.892C118.99 23.1607 119.008 23.4033 119.008 23.62V27H120.594V23.0805C120.594 22.9158 120.579 22.697 120.548 22.424C120.522 22.151 120.462 21.8628 120.366 21.5595C120.271 21.2562 120.124 20.9702 119.924 20.7015C119.725 20.4285 119.454 20.2075 119.112 20.0385C118.774 19.8652 118.347 19.7785 117.831 19.7785C117.324 19.7785 116.878 19.8673 116.492 20.045C116.111 20.2183 115.792 20.4567 115.537 20.76V17.64H114.139V27ZM125.481 27.195C126.157 27.195 126.775 27.0217 127.334 26.675C127.897 26.324 128.313 25.83 128.582 25.193L127.035 24.725C126.723 25.3923 126.175 25.726 125.39 25.726C124.857 25.726 124.437 25.5722 124.129 25.2645C123.822 24.9525 123.638 24.5062 123.577 23.9255H128.66C128.721 23.0805 128.627 22.3482 128.38 21.7285C128.133 21.1088 127.754 20.63 127.243 20.292C126.736 19.954 126.118 19.785 125.39 19.785C124.701 19.785 124.095 19.941 123.57 20.253C123.046 20.5607 122.637 20.9983 122.342 21.566C122.047 22.1337 121.9 22.801 121.9 23.568C121.9 24.2787 122.049 24.907 122.348 25.453C122.652 25.999 123.072 26.4258 123.609 26.7335C124.147 27.0412 124.771 27.195 125.481 27.195ZM125.455 21.1565C125.941 21.1565 126.313 21.2843 126.573 21.54C126.838 21.7913 127.005 22.1922 127.074 22.7425H123.616C123.802 21.6852 124.415 21.1565 125.455 21.1565ZM130.24 27H131.807V17.445H130.24V27ZM133.884 27H135.45V17.445H133.884V27ZM140.589 27.195C141.265 27.195 141.882 27.0217 142.441 26.675C143.005 26.324 143.421 25.83 143.689 25.193L142.142 24.725C141.83 25.3923 141.282 25.726 140.498 25.726C139.965 25.726 139.544 25.5722 139.237 25.2645C138.929 24.9525 138.745 24.5062 138.684 23.9255H143.767C143.828 23.0805 143.735 22.3482 143.488 21.7285C143.241 21.1088 142.862 20.63 142.35 20.292C141.843 19.954 141.226 19.785 140.498 19.785C139.809 19.785 139.202 19.941 138.678 20.253C138.153 20.5607 137.744 20.9983 137.449 21.566C137.155 22.1337 137.007 22.801 137.007 23.568C137.007 24.2787 137.157 24.907 137.456 25.453C137.759 25.999 138.179 26.4258 138.717 26.7335C139.254 27.0412 139.878 27.195 140.589 27.195ZM140.563 21.1565C141.048 21.1565 141.421 21.2843 141.681 21.54C141.945 21.7913 142.112 22.1922 142.181 22.7425H138.723C138.91 21.6852 139.523 21.1565 140.563 21.1565ZM147.17 27H148.782L149.419 24.972H153.111L153.755 27H155.367L152.416 17.64H150.121L147.17 27ZM149.881 23.5095L151.252 19.1545L152.643 23.5095H149.881ZM156.529 30.12H158.108V26.6425C158.347 26.8158 158.615 26.9502 158.914 27.0455C159.218 27.1452 159.551 27.195 159.915 27.195C160.565 27.195 161.129 27.0325 161.605 26.7075C162.086 26.3825 162.459 25.9405 162.723 25.3815C162.988 24.8225 163.12 24.192 163.12 23.49C163.12 22.7793 162.986 22.1445 162.717 21.5855C162.453 21.0265 162.076 20.5867 161.586 20.266C161.096 19.9453 160.52 19.785 159.857 19.785C159.458 19.785 159.096 19.8457 158.771 19.967C158.446 20.0883 158.16 20.2617 157.913 20.487V19.98H156.529V30.12ZM159.675 25.791C159.047 25.791 158.596 25.5787 158.323 25.154C158.05 24.725 157.913 24.1703 157.913 23.49C157.913 22.8053 158.048 22.2507 158.316 21.826C158.589 21.4013 159.025 21.189 159.623 21.189C160.043 21.189 160.388 21.293 160.656 21.501C160.929 21.7047 161.131 21.982 161.261 22.333C161.395 22.6797 161.462 23.0653 161.462 23.49C161.462 23.919 161.397 24.3068 161.267 24.6535C161.142 25.0002 160.947 25.2775 160.682 25.4855C160.418 25.6892 160.082 25.791 159.675 25.791ZM164.54 30.12H166.119V26.6425C166.357 26.8158 166.626 26.9502 166.925 27.0455C167.228 27.1452 167.562 27.195 167.926 27.195C168.576 27.195 169.139 27.0325 169.616 26.7075C170.097 26.3825 170.47 25.9405 170.734 25.3815C170.998 24.8225 171.131 24.192 171.131 23.49C171.131 22.7793 170.996 22.1445 170.728 21.5855C170.463 21.0265 170.086 20.5867 169.597 20.266C169.107 19.9453 168.531 19.785 167.868 19.785C167.469 19.785 167.107 19.8457 166.782 19.967C166.457 20.0883 166.171 20.2617 165.924 20.487V19.98H164.54V30.12ZM167.686 25.791C167.057 25.791 166.607 25.5787 166.334 25.154C166.061 24.725 165.924 24.1703 165.924 23.49C165.924 22.8053 166.058 22.2507 166.327 21.826C166.6 21.4013 167.036 21.189 167.634 21.189C168.054 21.189 168.398 21.293 168.667 21.501C168.94 21.7047 169.142 21.982 169.272 22.333C169.406 22.6797 169.473 23.0653 169.473 23.49C169.473 23.919 169.408 24.3068 169.278 24.6535C169.152 25.0002 168.957 25.2775 168.693 25.4855C168.429 25.6892 168.093 25.791 167.686 25.791ZM172.693 27H174.26V17.445H172.693V27ZM179.398 27.195C180.074 27.195 180.692 27.0217 181.251 26.675C181.814 26.324 182.23 25.83 182.499 25.193L180.952 24.725C180.64 25.3923 180.092 25.726 179.307 25.726C178.774 25.726 178.354 25.5722 178.046 25.2645C177.739 24.9525 177.555 24.5062 177.494 23.9255H182.577C182.638 23.0805 182.544 22.3482 182.297 21.7285C182.05 21.1088 181.671 20.63 181.16 20.292C180.653 19.954 180.035 19.785 179.307 19.785C178.618 19.785 178.012 19.941 177.487 20.253C176.963 20.5607 176.554 20.9983 176.259 21.566C175.964 22.1337 175.817 22.801 175.817 23.568C175.817 24.2787 175.966 24.907 176.265 25.453C176.569 25.999 176.989 26.4258 177.526 26.7335C178.064 27.0412 178.688 27.195 179.398 27.195ZM179.372 21.1565C179.858 21.1565 180.23 21.2843 180.49 21.54C180.755 21.7913 180.922 22.1922 180.991 22.7425H177.533C177.719 21.6852 178.332 21.1565 179.372 21.1565ZM188.142 27V25.687C187.704 25.752 187.314 25.7693 186.972 25.739C186.629 25.7087 186.38 25.5635 186.224 25.3035C186.142 25.1692 186.096 24.9958 186.088 24.7835C186.083 24.5668 186.081 24.3198 186.081 24.0425V21.2085H188.142V19.98H186.081V18.03H184.521V19.98H183.247V21.2085H184.521V24.1335C184.521 24.5365 184.526 24.8962 184.534 25.2125C184.543 25.5245 184.627 25.8322 184.788 26.1355C184.97 26.4692 185.236 26.714 185.587 26.87C185.938 27.0217 186.335 27.1018 186.777 27.1105C187.223 27.1235 187.678 27.0867 188.142 27ZM192.396 27.195C193.098 27.195 193.711 27.039 194.236 26.727C194.76 26.4107 195.167 25.9752 195.458 25.4205C195.752 24.8615 195.9 24.218 195.9 23.49C195.9 22.7663 195.755 22.1272 195.464 21.5725C195.174 21.0135 194.767 20.5758 194.242 20.2595C193.718 19.9432 193.103 19.785 192.396 19.785C191.707 19.785 191.101 19.941 190.576 20.253C190.052 20.565 189.642 20.9983 189.348 21.553C189.053 22.1077 188.906 22.7533 188.906 23.49C188.906 24.2137 189.049 24.855 189.335 25.414C189.625 25.9687 190.032 26.4042 190.557 26.7205C191.081 27.0368 191.694 27.195 192.396 27.195ZM192.396 25.726C191.794 25.726 191.337 25.5245 191.025 25.1215C190.717 24.7142 190.563 24.1703 190.563 23.49C190.563 22.827 190.711 22.2897 191.005 21.878C191.304 21.462 191.768 21.254 192.396 21.254C193.012 21.254 193.473 21.4577 193.781 21.865C194.088 22.268 194.242 22.8097 194.242 23.49C194.242 24.1487 194.088 24.686 193.781 25.102C193.477 25.518 193.016 25.726 192.396 25.726ZM197.319 27H198.905V23.3925C198.905 22.8248 198.985 22.3872 199.145 22.0795C199.31 21.7675 199.518 21.553 199.769 21.436C200.025 21.3147 200.285 21.254 200.549 21.254C200.922 21.254 201.219 21.3363 201.44 21.501C201.661 21.6613 201.823 21.8672 201.927 22.1185C202.036 22.3655 202.105 22.6233 202.135 22.892C202.17 23.1607 202.187 23.4033 202.187 23.62V27H203.773V23.0805C203.773 22.9158 203.758 22.697 203.728 22.424C203.702 22.151 203.641 21.8628 203.546 21.5595C203.451 21.2562 203.303 20.9702 203.104 20.7015C202.905 20.4285 202.634 20.2075 202.291 20.0385C201.953 19.8652 201.527 19.7785 201.011 19.7785C200.504 19.7785 200.058 19.8673 199.672 20.045C199.291 20.2183 198.972 20.4567 198.716 20.76V19.98H197.319V27Z" fill="#475469"/>
<path d="M91.65 45.9935H97.981V44.7H93.7495L96.46 42.282C96.798 41.983 97.0797 41.7057 97.305 41.45C97.5303 41.1943 97.6993 40.917 97.812 40.618C97.9247 40.3147 97.981 39.9507 97.981 39.526C97.981 38.9323 97.8445 38.4037 97.5715 37.94C97.3028 37.4763 96.9345 37.1123 96.4665 36.848C95.9985 36.5793 95.4698 36.445 94.8805 36.445C94.2608 36.445 93.7083 36.575 93.223 36.835C92.742 37.0907 92.365 37.4482 92.092 37.9075C91.819 38.3625 91.6825 38.8933 91.6825 39.5H93.0735C93.0692 39.1837 93.1428 38.8933 93.2945 38.629C93.4505 38.3603 93.6628 38.1458 93.9315 37.9855C94.2002 37.8208 94.5078 37.7385 94.8545 37.7385C95.3572 37.7385 95.771 37.9075 96.096 38.2455C96.421 38.5835 96.5835 39.0038 96.5835 39.5065C96.5835 39.7708 96.5228 40.0352 96.4015 40.2995C96.2845 40.5595 96.0613 40.8368 95.732 41.1315L91.6565 44.7845L91.65 45.9935ZM102.536 46.195C103.147 46.195 103.687 46.0715 104.155 45.8245C104.627 45.5775 104.998 45.2352 105.266 44.7975C105.535 44.3598 105.669 43.855 105.669 43.283C105.669 42.815 105.572 42.3817 105.377 41.983C105.186 41.58 104.902 41.2463 104.525 40.982C105.123 40.501 105.422 39.8575 105.422 39.0515C105.422 38.5185 105.299 38.057 105.052 37.667C104.805 37.277 104.465 36.9758 104.031 36.7635C103.598 36.5512 103.1 36.445 102.536 36.445C101.973 36.445 101.473 36.5512 101.035 36.7635C100.602 36.9758 100.261 37.277 100.014 37.667C99.7674 38.057 99.6439 38.5185 99.6439 39.0515C99.6439 39.8402 99.9429 40.4837 100.541 40.982C100.164 41.2507 99.88 41.5843 99.6894 41.983C99.503 42.3817 99.4099 42.815 99.4099 43.283C99.4099 43.855 99.542 44.3598 99.8064 44.7975C100.075 45.2352 100.443 45.5775 100.911 45.8245C101.384 46.0715 101.925 46.195 102.536 46.195ZM102.536 40.3515C102.107 40.3515 101.759 40.2432 101.49 40.0265C101.221 39.8098 101.087 39.4848 101.087 39.0515C101.087 38.6138 101.221 38.2867 101.49 38.07C101.759 37.849 102.107 37.7385 102.536 37.7385C102.965 37.7385 103.312 37.849 103.576 38.07C103.845 38.2867 103.979 38.6138 103.979 39.0515C103.979 39.4848 103.845 39.8098 103.576 40.0265C103.312 40.2432 102.965 40.3515 102.536 40.3515ZM102.536 44.9015C102.034 44.9015 101.626 44.765 101.314 44.492C101.002 44.2147 100.846 43.8117 100.846 43.283C100.846 42.7543 101 42.3513 101.308 42.074C101.62 41.7923 102.029 41.6515 102.536 41.6515C103.043 41.6515 103.451 41.7923 103.758 42.074C104.07 42.3513 104.226 42.7543 104.226 43.283C104.226 43.8117 104.07 44.2147 103.758 44.492C103.446 44.765 103.039 44.9015 102.536 44.9015ZM111.744 46.1885C112.229 46.1885 112.673 46.0888 113.076 45.8895C113.479 45.6902 113.804 45.376 114.051 44.947C114.229 44.6437 114.324 44.349 114.337 44.063C114.35 43.7727 114.357 43.4195 114.357 43.0035V36.64H112.979V43.0035C112.979 43.2765 112.972 43.5148 112.959 43.7185C112.946 43.9178 112.903 44.0933 112.829 44.245C112.721 44.4833 112.556 44.6545 112.335 44.7585C112.114 44.8582 111.902 44.908 111.698 44.908C111.386 44.908 111.107 44.8062 110.86 44.6025C110.613 44.3945 110.459 44.1453 110.398 43.855L109.053 44.1735C109.23 44.7888 109.551 45.2785 110.015 45.6425C110.483 46.0065 111.059 46.1885 111.744 46.1885ZM118.956 46.1885C119.463 46.1885 119.911 46.0975 120.301 45.9155C120.696 45.7335 121.021 45.4822 121.276 45.1615V46H122.485V38.98H121.114V42.633C121.114 43.1877 121.034 43.6318 120.873 43.9655C120.713 44.2948 120.496 44.5332 120.223 44.6805C119.955 44.8278 119.658 44.9015 119.333 44.9015C118.96 44.9015 118.657 44.8257 118.423 44.674C118.189 44.5223 118.009 44.323 117.883 44.076C117.758 43.829 117.671 43.5625 117.623 43.2765C117.58 42.9862 117.558 42.7045 117.558 42.4315V38.98H116.18V42.88C116.18 43.0967 116.2 43.348 116.239 43.634C116.278 43.92 116.352 44.2125 116.46 44.5115C116.568 44.8105 116.724 45.0878 116.928 45.3435C117.136 45.5948 117.405 45.7985 117.734 45.9545C118.063 46.1105 118.471 46.1885 118.956 46.1885ZM124.302 46H125.68V42.347C125.68 41.7923 125.76 41.3503 125.92 41.021C126.085 40.6873 126.302 40.4468 126.57 40.2995C126.839 40.1522 127.136 40.0785 127.461 40.0785C127.834 40.0785 128.137 40.1543 128.371 40.306C128.605 40.4577 128.785 40.657 128.91 40.904C129.036 41.151 129.121 41.4197 129.164 41.71C129.212 41.996 129.235 42.2755 129.235 42.5485V46H130.613V42.1C130.613 41.8833 130.594 41.632 130.555 41.346C130.516 41.06 130.442 40.7675 130.334 40.4685C130.226 40.1695 130.067 39.8943 129.859 39.643C129.656 39.3873 129.389 39.1815 129.06 39.0255C128.731 38.8695 128.323 38.7915 127.838 38.7915C127.331 38.7915 126.88 38.8825 126.486 39.0645C126.096 39.2465 125.773 39.4978 125.517 39.8185V38.98H124.302V46ZM134.649 45.9935H140.98V44.7H136.749L139.459 42.282C139.797 41.983 140.079 41.7057 140.304 41.45C140.529 41.1943 140.698 40.917 140.811 40.618C140.924 40.3147 140.98 39.9507 140.98 39.526C140.98 38.9323 140.844 38.4037 140.571 37.94C140.302 37.4763 139.934 37.1123 139.466 36.848C138.998 36.5793 138.469 36.445 137.88 36.445C137.26 36.445 136.707 36.575 136.222 36.835C135.741 37.0907 135.364 37.4482 135.091 37.9075C134.818 38.3625 134.682 38.8933 134.682 39.5H136.073C136.068 39.1837 136.142 38.8933 136.294 38.629C136.45 38.3603 136.662 38.1458 136.931 37.9855C137.199 37.8208 137.507 37.7385 137.854 37.7385C138.356 37.7385 138.77 37.9075 139.095 38.2455C139.42 38.5835 139.583 39.0038 139.583 39.5065C139.583 39.7708 139.522 40.0352 139.401 40.2995C139.284 40.5595 139.06 40.8368 138.731 41.1315L134.656 44.7845L134.649 45.9935ZM145.802 46.195C146.439 46.195 147.002 46.0563 147.492 45.779C147.982 45.4973 148.365 45.1117 148.642 44.622C148.924 44.128 149.065 43.5647 149.065 42.932V39.708C149.065 39.071 148.924 38.5077 148.642 38.018C148.365 37.5283 147.982 37.1448 147.492 36.8675C147.002 36.5858 146.439 36.445 145.802 36.445C145.169 36.445 144.606 36.5858 144.112 36.8675C143.622 37.1448 143.237 37.5283 142.955 38.018C142.678 38.5077 142.539 39.071 142.539 39.708V42.932C142.539 43.5647 142.678 44.128 142.955 44.622C143.237 45.1117 143.622 45.4973 144.112 45.779C144.606 46.0563 145.169 46.195 145.802 46.195ZM145.802 44.895C145.455 44.895 145.139 44.8127 144.853 44.648C144.567 44.479 144.339 44.2515 144.17 43.9655C144.006 43.6795 143.923 43.3632 143.923 43.0165V39.6105C143.923 39.2638 144.006 38.9497 144.17 38.668C144.339 38.382 144.567 38.1567 144.853 37.992C145.139 37.823 145.455 37.7385 145.802 37.7385C146.153 37.7385 146.469 37.823 146.751 37.992C147.037 38.1567 147.262 38.382 147.427 38.668C147.596 38.9497 147.68 39.2638 147.68 39.6105V43.0165C147.68 43.3632 147.596 43.6795 147.427 43.9655C147.262 44.2515 147.037 44.479 146.751 44.648C146.469 44.8127 146.153 44.895 145.802 44.895ZM150.62 45.9935H156.951V44.7H152.719L155.43 42.282C155.768 41.983 156.049 41.7057 156.275 41.45C156.5 41.1943 156.669 40.917 156.782 40.618C156.894 40.3147 156.951 39.9507 156.951 39.526C156.951 38.9323 156.814 38.4037 156.541 37.94C156.273 37.4763 155.904 37.1123 155.436 36.848C154.968 36.5793 154.44 36.445 153.85 36.445C153.231 36.445 152.678 36.575 152.193 36.835C151.712 37.0907 151.335 37.4482 151.062 37.9075C150.789 38.3625 150.652 38.8933 150.652 39.5H152.043C152.039 39.1837 152.113 38.8933 152.264 38.629C152.42 38.3603 152.633 38.1458 152.901 37.9855C153.17 37.8208 153.478 37.7385 153.824 37.7385C154.327 37.7385 154.741 37.9075 155.066 38.2455C155.391 38.5835 155.553 39.0038 155.553 39.5065C155.553 39.7708 155.493 40.0352 155.371 40.2995C155.254 40.5595 155.031 40.8368 154.702 41.1315L150.626 44.7845L150.62 45.9935ZM161.773 46.195C162.41 46.195 162.973 46.0563 163.463 45.779C163.952 45.4973 164.336 45.1117 164.613 44.622C164.895 44.128 165.036 43.5647 165.036 42.932V39.708C165.036 39.071 164.895 38.5077 164.613 38.018C164.336 37.5283 163.952 37.1448 163.463 36.8675C162.973 36.5858 162.41 36.445 161.773 36.445C161.14 36.445 160.577 36.5858 160.083 36.8675C159.593 37.1448 159.207 37.5283 158.926 38.018C158.648 38.5077 158.51 39.071 158.51 39.708V42.932C158.51 43.5647 158.648 44.128 158.926 44.622C159.207 45.1117 159.593 45.4973 160.083 45.779C160.577 46.0563 161.14 46.195 161.773 46.195ZM161.773 44.895C161.426 44.895 161.11 44.8127 160.824 44.648C160.538 44.479 160.31 44.2515 160.141 43.9655C159.976 43.6795 159.894 43.3632 159.894 43.0165V39.6105C159.894 39.2638 159.976 38.9497 160.141 38.668C160.31 38.382 160.538 38.1567 160.824 37.992C161.11 37.823 161.426 37.7385 161.773 37.7385C162.124 37.7385 162.44 37.823 162.722 37.992C163.008 38.1567 163.233 38.382 163.398 38.668C163.567 38.9497 163.651 39.2638 163.651 39.6105V43.0165C163.651 43.3632 163.567 43.6795 163.398 43.9655C163.233 44.2515 163.008 44.479 162.722 44.648C162.44 44.8127 162.124 44.895 161.773 44.895Z" fill="#C4C4C4"/>
<path d="M0 0H331V53C331 61.2843 324.284 68 316 68H15C6.71573 68 0 61.2843 0 53V0Z" fill="#475469"/>
<path d="M197 27.8941C196.251 28.2209 195.457 28.4352 194.643 28.53C195.5 28.0256 196.141 27.2312 196.447 26.2953C195.642 26.7659 194.761 27.0975 193.842 27.2758C193.458 26.8725 192.994 26.5511 192.479 26.3316C191.964 26.1121 191.408 25.9993 190.847 26C188.197 26 186.251 28.4335 186.849 30.9586C185.218 30.8785 183.622 30.4615 182.165 29.7348C180.708 29.0081 179.422 27.9878 178.392 26.7403C177.868 27.6297 177.707 28.6823 177.943 29.684C178.179 30.6858 178.794 31.5614 179.662 32.133C179.011 32.113 178.374 31.9398 177.804 31.628C177.759 33.4984 179.122 35.2497 181.095 35.6396C180.491 35.8011 179.857 35.8247 179.242 35.7085C179.504 36.5111 180.014 37.2129 180.702 37.7158C181.389 38.2187 182.219 38.4975 183.075 38.5131C181.355 39.8409 179.17 40.4424 177 40.1857C178.876 41.3723 181.06 42.0022 183.29 42C190.908 42 195.212 35.6662 194.953 29.985C195.756 29.4131 196.449 28.705 197 27.8941Z" fill="white"/>
<path d="M162.842 24H144.159C143.519 24 143 24.494 143 25.104V42.897C143 43.506 143.519 44 144.159 44H154.219V36.255H151.48V33.237H154.217V31.01C154.217 28.427 155.874 27.02 158.294 27.02C159.453 27.02 160.449 27.102 160.74 27.139V29.839H159.062C157.745 29.839 157.491 30.436 157.491 31.309V33.237H160.629L160.22 36.255H157.49V44H162.843C163.481 44 164 43.506 164 42.896V25.104C164.001 24.494 163.482 24 162.842 24Z" fill="white"/>
<path d="M216.5 24C210.702 24 206 28.477 206 34C206 38.237 208.768 41.855 212.674 43.312C212.581 42.521 212.498 41.307 212.711 40.444C212.902 39.664 213.941 35.474 213.941 35.474C213.941 35.474 213.627 34.874 213.627 33.988C213.627 32.598 214.474 31.56 215.528 31.56C216.422 31.56 216.855 32.2 216.855 32.968C216.855 33.826 216.283 35.108 215.985 36.298C215.738 37.293 216.51 38.105 217.539 38.105C219.406 38.105 220.841 36.231 220.841 33.525C220.841 31.132 219.035 29.457 216.455 29.457C213.468 29.457 211.714 31.592 211.714 33.797C211.714 34.656 212.062 35.578 212.496 36.078C212.534 36.1159 212.56 36.1624 212.572 36.2129C212.585 36.2634 212.584 36.3161 212.569 36.366L212.277 37.499C212.231 37.682 212.125 37.722 211.925 37.633C210.614 37.052 209.794 35.226 209.794 33.759C209.794 30.605 212.2 27.707 216.732 27.707C220.374 27.707 223.205 30.18 223.205 33.483C223.205 36.93 220.924 39.703 217.756 39.703C216.692 39.703 215.693 39.178 215.35 38.555L214.696 40.933C214.459 41.802 213.819 42.891 213.39 43.554C214.374 43.844 215.417 44 216.5 44C222.298 44 227 39.523 227 34C227 28.477 222.298 24 216.5 24Z" fill="white"/>
<path d="M39.965 39.225C40.71 39.225 41.395 39.1 42.02 38.85C42.65 38.6 43.155 38.23 43.535 37.74C43.915 37.25 44.105 36.6425 44.105 35.9175C44.105 35.3925 44.0075 34.9575 43.8125 34.6125C43.6175 34.2625 43.37 33.9825 43.07 33.7725C42.775 33.5625 42.4675 33.4 42.1475 33.285C41.8325 33.165 41.55 33.07 41.3 33L39.305 32.4375C39.05 32.3675 38.7925 32.28 38.5325 32.175C38.2775 32.065 38.0625 31.9175 37.8875 31.7325C37.7125 31.5475 37.625 31.305 37.625 31.005C37.625 30.695 37.7225 30.425 37.9175 30.195C38.1175 29.96 38.3825 29.7775 38.7125 29.6475C39.0475 29.5175 39.415 29.4575 39.815 29.4675C40.435 29.4725 40.9825 29.65 41.4575 30C41.9375 30.345 42.235 30.8225 42.35 31.4325L44.03 31.1475C43.81 30.1525 43.33 29.38 42.59 28.83C41.85 28.275 40.9325 27.9925 39.8375 27.9825C39.1125 27.9775 38.4575 28.095 37.8725 28.335C37.2875 28.575 36.8225 28.925 36.4775 29.385C36.1375 29.845 35.9675 30.41 35.9675 31.08C35.9675 31.66 36.09 32.13 36.335 32.49C36.58 32.85 36.885 33.13 37.25 33.33C37.62 33.53 37.985 33.6825 38.345 33.7875L41.1125 34.605C41.5125 34.725 41.8375 34.895 42.0875 35.115C42.3425 35.33 42.47 35.6325 42.47 36.0225C42.47 36.3825 42.3575 36.6925 42.1325 36.9525C41.9125 37.2075 41.62 37.405 41.255 37.545C40.89 37.68 40.49 37.7475 40.055 37.7475C39.355 37.7475 38.7425 37.565 38.2175 37.2C37.6925 36.835 37.3475 36.32 37.1825 35.655L35.5475 35.9025C35.6675 36.5875 35.9275 37.18 36.3275 37.68C36.7275 38.175 37.24 38.5575 37.865 38.8275C38.49 39.0925 39.19 39.225 39.965 39.225ZM48.7033 39H50.2708V34.335H55.6708V39H57.2458V28.2H55.6708V32.8575H50.2708V28.2H48.7033V39ZM61.6027 39H63.2302L64.0177 36.5625H68.4502L69.2527 39H70.8802L67.3702 28.2H65.1127L61.6027 39ZM64.4977 35.0925L66.2227 29.7675L67.9702 35.0925H64.4977ZM75.2258 39H76.7933V35.1225H79.6583L81.5408 39H83.3333L81.2933 34.815C81.9083 34.55 82.3683 34.1375 82.6733 33.5775C82.9783 33.0175 83.1308 32.3775 83.1308 31.6575C83.1308 30.7825 82.9058 30.0325 82.4558 29.4075C82.0058 28.7825 81.3283 28.4 80.4233 28.26C80.2833 28.235 80.1358 28.22 79.9808 28.215C79.8258 28.205 79.6958 28.2 79.5908 28.2H75.2258V39ZM76.7933 33.6375V29.6775H79.5308C79.6308 29.6775 79.7408 29.6825 79.8608 29.6925C79.9858 29.7025 80.1033 29.7225 80.2133 29.7525C80.6933 29.8625 81.0333 30.1075 81.2333 30.4875C81.4333 30.8675 81.5333 31.2575 81.5333 31.6575C81.5333 32.0525 81.4333 32.4425 81.2333 32.8275C81.0333 33.2075 80.6933 33.455 80.2133 33.57C80.1033 33.595 79.9858 33.6125 79.8608 33.6225C79.7408 33.6325 79.6308 33.6375 79.5308 33.6375H76.7933ZM87.9816 39H94.8816V37.5225H89.5491V34.185H93.9816V32.7075H89.5491V29.6775H94.8816V28.2H87.9816V39Z" fill="#6E8098"/>
<circle cx="300" cy="34" r="15" fill="#6D7F97"/>
<path d="M308 32.4942L301.766 25.0161V29.4769H300.441C296.33 29.4769 293 33.1219 293 37.6184V39.9827L293.589 39.2765C295.59 36.8777 298.422 35.5115 301.39 35.5115H301.765V39.9734L308 32.4942Z" fill="white"/>
</svg>
