<svg width="35" height="39" viewBox="0 0 35 39" fill="none" xmlns="http://www.w3.org/2000/svg">
<path d="M0 14H35V35C35 37.2091 33.2091 39 31 39H4C1.79086 39 0 37.2091 0 35V14Z" fill="#4F4F4F"/>
<rect x="5" y="19" width="5" height="5" rx="1.3" fill="white"/>
<rect x="15" y="19" width="5" height="5" rx="1.3" fill="white"/>
<rect x="25" y="28" width="5" height="5" rx="1.3" fill="white"/>
<rect x="15" y="28" width="5" height="5" rx="1.3" fill="white"/>
<rect x="5" y="28" width="5" height="5" rx="1.3" fill="white"/>
<rect x="25" y="19" width="5" height="5" rx="1.3" fill="white"/>
<path d="M0 7C0 5.34315 1.34315 4 3 4H32C33.6569 4 35 5.34315 35 7V13H0V7Z" fill="#4F4F4F"/>
<path d="M7 2C7 0.89543 7.89543 0 9 0H12C13.1046 0 14 0.895431 14 2V5H7V2Z" fill="#4F4F4F"/>
<path d="M21 2C21 0.89543 21.8954 0 23 0H26C27.1046 0 28 0.895431 28 2V5H21V2Z" fill="#4F4F4F"/>
</svg>
