<svg width="685" height="154" viewBox="0 0 685 154" fill="none" xmlns="http://www.w3.org/2000/svg">
<path d="M327 8V32.5L326.5 34L324 31.5L322.5 30.5L320.5 30H318.5L316.5 30.5L315 31.5L313 33.5L312 35V37V40L313 42.5L315 44.5L317.5 46L319.5 48L322 50L324 52.5L326 56.5L328 59.5L329.5 62.5L331.5 65.5L334 68H365.5L366.5 67L368 64.5L368.5 62.5L369.5 59.5L371 57L372 55L373 52L374 50V37V35.5L373.5 34.5L373 33L372 32L371 31L370.5 30.5L370 30L369.5 29.5L369 29H368H367.5H365.5H364H362.5V28L362 27.5L361.5 27L361 26.5L360.5 26L360 25.5L359 25H358.5H357.5H356.5H355.5L354 25.5L353 26L352.5 25.5L352 24.5L351.5 24L351 23.5L350.5 23L349.5 22.5L348.5 22H347.5H346.5L345.5 22.5L344 23L342 24V10V8V7V6.5V6V5.5L341.5 5L340.5 4L339.5 3L339 2.5L338.5 2L338 1.5L337 1H336H334.5L333 1.5L332 2L331 2.5L330 3L329.5 3.5L328.5 4.5L327.5 6L327 8Z" fill="#BBBBBB" stroke="#BBBBBB" stroke-opacity="0.5"/>
<rect x="330" y="71" width="39" height="17" rx="5" fill="#BBBBBB"/>
<circle cx="361.5" cy="79.5" r="3.5" fill="white"/>
<path d="M4.76074 148H2.32324V129.516H4.76074V148ZM11.083 134.264L11.1592 135.99C12.2087 134.67 13.5798 134.01 15.2725 134.01C18.1755 134.01 19.6396 135.647 19.665 138.923V148H17.3164V138.91C17.3079 137.92 17.0794 137.188 16.6309 136.714C16.1908 136.24 15.501 136.003 14.5615 136.003C13.7998 136.003 13.1312 136.206 12.5557 136.612C11.9801 137.019 11.5316 137.552 11.21 138.212V148H8.86133V134.264H11.083ZM22.6484 141.018C22.6484 138.876 23.1436 137.175 24.1338 135.914C25.124 134.645 26.4359 134.01 28.0693 134.01C29.7451 134.01 31.0527 134.602 31.9922 135.787L32.1064 134.264H34.252V147.67C34.252 149.447 33.723 150.848 32.665 151.872C31.6156 152.896 30.2021 153.408 28.4248 153.408C27.4346 153.408 26.4655 153.197 25.5176 152.773C24.5697 152.35 23.846 151.771 23.3467 151.034L24.5654 149.625C25.5726 150.869 26.804 151.491 28.2598 151.491C29.4023 151.491 30.291 151.17 30.9258 150.526C31.569 149.883 31.8906 148.978 31.8906 147.81V146.629C30.9512 147.712 29.6689 148.254 28.0439 148.254C26.4359 148.254 25.1325 147.606 24.1338 146.312C23.1436 145.017 22.6484 143.252 22.6484 141.018ZM25.0098 141.284C25.0098 142.833 25.3271 144.052 25.9619 144.94C26.5967 145.821 27.4854 146.261 28.6279 146.261C30.109 146.261 31.1966 145.588 31.8906 144.242V137.971C31.1712 136.659 30.0921 136.003 28.6533 136.003C27.5107 136.003 26.6178 136.447 25.9746 137.336C25.3314 138.225 25.0098 139.541 25.0098 141.284ZM44.4463 136.371C44.0908 136.312 43.7057 136.282 43.291 136.282C41.7507 136.282 40.7054 136.938 40.1553 138.25V148H37.8066V134.264H40.0918L40.1299 135.851C40.9001 134.623 41.9919 134.01 43.4053 134.01C43.8623 134.01 44.2093 134.069 44.4463 134.188V136.371ZM52.0635 148.254C50.2015 148.254 48.6865 147.645 47.5186 146.426C46.3506 145.199 45.7666 143.561 45.7666 141.513V141.081C45.7666 139.718 46.0247 138.504 46.541 137.438C47.0658 136.363 47.7936 135.525 48.7246 134.924C49.6641 134.314 50.6797 134.01 51.7715 134.01C53.5573 134.01 54.9453 134.598 55.9355 135.774C56.9258 136.951 57.4209 138.635 57.4209 140.827V141.805H48.1152C48.1491 143.159 48.5426 144.255 49.2959 145.093C50.0576 145.922 51.0225 146.337 52.1904 146.337C53.0199 146.337 53.7223 146.168 54.2979 145.829C54.8734 145.491 55.377 145.042 55.8086 144.483L57.2432 145.601C56.0921 147.369 54.3656 148.254 52.0635 148.254ZM51.7715 135.939C50.8236 135.939 50.028 136.286 49.3848 136.98C48.7415 137.666 48.3438 138.631 48.1914 139.875H55.0723V139.697C55.0046 138.504 54.6829 137.581 54.1074 136.93C53.5319 136.27 52.7533 135.939 51.7715 135.939ZM68.1484 144.356C68.1484 143.722 67.9072 143.231 67.4248 142.884C66.9508 142.528 66.1172 142.224 64.9238 141.97C63.7389 141.716 62.7952 141.411 62.0928 141.056C61.3988 140.7 60.8825 140.277 60.5439 139.786C60.2139 139.295 60.0488 138.711 60.0488 138.034C60.0488 136.909 60.5228 135.956 61.4707 135.178C62.4271 134.399 63.6458 134.01 65.127 134.01C66.6842 134.01 67.9453 134.412 68.9102 135.216C69.8835 136.02 70.3701 137.048 70.3701 138.301H68.0088C68.0088 137.658 67.7337 137.103 67.1836 136.638C66.6419 136.172 65.9564 135.939 65.127 135.939C64.2721 135.939 63.6035 136.126 63.1211 136.498C62.6387 136.87 62.3975 137.357 62.3975 137.958C62.3975 138.525 62.6217 138.952 63.0703 139.24C63.5189 139.528 64.3271 139.803 65.4951 140.065C66.6715 140.328 67.6237 140.641 68.3516 141.005C69.0794 141.369 69.6169 141.809 69.9639 142.325C70.3193 142.833 70.4971 143.455 70.4971 144.191C70.4971 145.419 70.0062 146.405 69.0244 147.149C68.0426 147.886 66.7689 148.254 65.2031 148.254C64.1029 148.254 63.1296 148.059 62.2832 147.67C61.4368 147.281 60.7725 146.739 60.29 146.045C59.8161 145.342 59.5791 144.585 59.5791 143.772H61.9277C61.9701 144.56 62.2832 145.186 62.8672 145.651C63.4596 146.108 64.2383 146.337 65.2031 146.337C66.0918 146.337 66.8027 146.159 67.3359 145.804C67.8776 145.44 68.1484 144.957 68.1484 144.356ZM79.2568 148.254C77.3949 148.254 75.8799 147.645 74.7119 146.426C73.5439 145.199 72.96 143.561 72.96 141.513V141.081C72.96 139.718 73.2181 138.504 73.7344 137.438C74.2591 136.363 74.987 135.525 75.918 134.924C76.8574 134.314 77.873 134.01 78.9648 134.01C80.7507 134.01 82.1387 134.598 83.1289 135.774C84.1191 136.951 84.6143 138.635 84.6143 140.827V141.805H75.3086C75.3424 143.159 75.736 144.255 76.4893 145.093C77.251 145.922 78.2158 146.337 79.3838 146.337C80.2132 146.337 80.9157 146.168 81.4912 145.829C82.0667 145.491 82.5703 145.042 83.002 144.483L84.4365 145.601C83.2855 147.369 81.5589 148.254 79.2568 148.254ZM78.9648 135.939C78.0169 135.939 77.2214 136.286 76.5781 136.98C75.9349 137.666 75.5371 138.631 75.3848 139.875H82.2656V139.697C82.1979 138.504 81.8763 137.581 81.3008 136.93C80.7253 136.27 79.9466 135.939 78.9648 135.939ZM96.3447 148H93.9961V128.5H96.3447V148ZM99.4932 141.005C99.4932 139.659 99.7555 138.449 100.28 137.374C100.813 136.299 101.55 135.47 102.489 134.886C103.437 134.302 104.516 134.01 105.727 134.01C107.597 134.01 109.108 134.657 110.259 135.952C111.418 137.247 111.998 138.969 111.998 141.119V141.284C111.998 142.621 111.74 143.823 111.224 144.89C110.716 145.948 109.984 146.773 109.027 147.365C108.079 147.958 106.988 148.254 105.752 148.254C103.89 148.254 102.379 147.606 101.22 146.312C100.069 145.017 99.4932 143.303 99.4932 141.17V141.005ZM101.854 141.284C101.854 142.808 102.206 144.031 102.908 144.953C103.619 145.876 104.567 146.337 105.752 146.337C106.945 146.337 107.893 145.871 108.596 144.94C109.298 144.001 109.649 142.689 109.649 141.005C109.649 139.498 109.29 138.28 108.57 137.349C107.859 136.409 106.911 135.939 105.727 135.939C104.567 135.939 103.632 136.401 102.921 137.323C102.21 138.246 101.854 139.566 101.854 141.284ZM122.941 144.356C122.941 143.722 122.7 143.231 122.218 142.884C121.744 142.528 120.91 142.224 119.717 141.97C118.532 141.716 117.588 141.411 116.886 141.056C116.192 140.7 115.675 140.277 115.337 139.786C115.007 139.295 114.842 138.711 114.842 138.034C114.842 136.909 115.316 135.956 116.264 135.178C117.22 134.399 118.439 134.01 119.92 134.01C121.477 134.01 122.738 134.412 123.703 135.216C124.676 136.02 125.163 137.048 125.163 138.301H122.802C122.802 137.658 122.527 137.103 121.977 136.638C121.435 136.172 120.749 135.939 119.92 135.939C119.065 135.939 118.396 136.126 117.914 136.498C117.432 136.87 117.19 137.357 117.19 137.958C117.19 138.525 117.415 138.952 117.863 139.24C118.312 139.528 119.12 139.803 120.288 140.065C121.465 140.328 122.417 140.641 123.145 141.005C123.872 141.369 124.41 141.809 124.757 142.325C125.112 142.833 125.29 143.455 125.29 144.191C125.29 145.419 124.799 146.405 123.817 147.149C122.836 147.886 121.562 148.254 119.996 148.254C118.896 148.254 117.923 148.059 117.076 147.67C116.23 147.281 115.565 146.739 115.083 146.045C114.609 145.342 114.372 144.585 114.372 143.772H116.721C116.763 144.56 117.076 145.186 117.66 145.651C118.253 146.108 119.031 146.337 119.996 146.337C120.885 146.337 121.596 146.159 122.129 145.804C122.671 145.44 122.941 144.957 122.941 144.356ZM135.586 148V136.079H133.415V134.264H135.586V133.096C135.586 131.564 136.022 130.37 136.894 129.516C137.774 128.661 139.014 128.233 140.613 128.233C141.561 128.233 142.759 128.492 144.206 129.008L143.812 130.988C142.755 130.565 141.747 130.354 140.791 130.354C139.784 130.354 139.056 130.582 138.607 131.039C138.167 131.488 137.947 132.165 137.947 133.07V134.264H140.753V136.079H137.947V148H135.586ZM145.374 148H143.013V134.264H145.374V148ZM151.747 148H149.398V128.5H151.747V148ZM158.704 130.938V134.264H161.269V136.079H158.704V144.598C158.704 145.148 158.818 145.562 159.047 145.842C159.275 146.113 159.665 146.248 160.215 146.248C160.486 146.248 160.858 146.197 161.332 146.096V148C160.714 148.169 160.113 148.254 159.529 148.254C158.48 148.254 157.688 147.937 157.155 147.302C156.622 146.667 156.355 145.766 156.355 144.598V136.079H153.854V134.264H156.355V130.938H158.704ZM170.663 136.371C170.308 136.312 169.923 136.282 169.508 136.282C167.967 136.282 166.922 136.938 166.372 138.25V148H164.023V134.264H166.309L166.347 135.851C167.117 134.623 168.209 134.01 169.622 134.01C170.079 134.01 170.426 134.069 170.663 134.188V136.371ZM171.958 141.005C171.958 139.659 172.22 138.449 172.745 137.374C173.278 136.299 174.015 135.47 174.954 134.886C175.902 134.302 176.981 134.01 178.191 134.01C180.062 134.01 181.573 134.657 182.724 135.952C183.883 137.247 184.463 138.969 184.463 141.119V141.284C184.463 142.621 184.205 143.823 183.688 144.89C183.181 145.948 182.449 146.773 181.492 147.365C180.544 147.958 179.452 148.254 178.217 148.254C176.355 148.254 174.844 147.606 173.685 146.312C172.534 145.017 171.958 143.303 171.958 141.17V141.005ZM174.319 141.284C174.319 142.808 174.671 144.031 175.373 144.953C176.084 145.876 177.032 146.337 178.217 146.337C179.41 146.337 180.358 145.871 181.061 144.94C181.763 144.001 182.114 142.689 182.114 141.005C182.114 139.498 181.755 138.28 181.035 137.349C180.324 136.409 179.376 135.939 178.191 135.939C177.032 135.939 176.097 136.401 175.386 137.323C174.675 138.246 174.319 139.566 174.319 141.284ZM195.406 144.356C195.406 143.722 195.165 143.231 194.683 142.884C194.209 142.528 193.375 142.224 192.182 141.97C190.997 141.716 190.053 141.411 189.351 141.056C188.657 140.7 188.14 140.277 187.802 139.786C187.472 139.295 187.307 138.711 187.307 138.034C187.307 136.909 187.781 135.956 188.729 135.178C189.685 134.399 190.904 134.01 192.385 134.01C193.942 134.01 195.203 134.412 196.168 135.216C197.141 136.02 197.628 137.048 197.628 138.301H195.267C195.267 137.658 194.992 137.103 194.441 136.638C193.9 136.172 193.214 135.939 192.385 135.939C191.53 135.939 190.861 136.126 190.379 136.498C189.896 136.87 189.655 137.357 189.655 137.958C189.655 138.525 189.88 138.952 190.328 139.24C190.777 139.528 191.585 139.803 192.753 140.065C193.929 140.328 194.882 140.641 195.609 141.005C196.337 141.369 196.875 141.809 197.222 142.325C197.577 142.833 197.755 143.455 197.755 144.191C197.755 145.419 197.264 146.405 196.282 147.149C195.3 147.886 194.027 148.254 192.461 148.254C191.361 148.254 190.387 148.059 189.541 147.67C188.695 147.281 188.03 146.739 187.548 146.045C187.074 145.342 186.837 144.585 186.837 143.772H189.186C189.228 144.56 189.541 145.186 190.125 145.651C190.717 146.108 191.496 146.337 192.461 146.337C193.35 146.337 194.061 146.159 194.594 145.804C195.135 145.44 195.406 144.957 195.406 144.356ZM218.867 141.284C218.867 143.375 218.389 145.059 217.433 146.337C216.476 147.615 215.181 148.254 213.548 148.254C211.881 148.254 210.569 147.725 209.612 146.667V153.281H207.264V134.264H209.409L209.523 135.787C210.48 134.602 211.809 134.01 213.51 134.01C215.16 134.01 216.464 134.632 217.42 135.876C218.385 137.12 218.867 138.851 218.867 141.068V141.284ZM216.519 141.018C216.519 139.469 216.188 138.246 215.528 137.349C214.868 136.451 213.963 136.003 212.812 136.003C211.39 136.003 210.323 136.633 209.612 137.895V144.458C210.315 145.711 211.39 146.337 212.837 146.337C213.963 146.337 214.855 145.893 215.516 145.004C216.184 144.107 216.519 142.778 216.519 141.018ZM230.344 148C230.208 147.729 230.098 147.247 230.014 146.553C228.922 147.687 227.618 148.254 226.104 148.254C224.749 148.254 223.636 147.873 222.765 147.111C221.901 146.341 221.47 145.368 221.47 144.191C221.47 142.761 222.011 141.652 223.095 140.865C224.187 140.07 225.718 139.672 227.69 139.672H229.976V138.593C229.976 137.772 229.73 137.12 229.239 136.638C228.748 136.147 228.025 135.901 227.068 135.901C226.23 135.901 225.528 136.113 224.961 136.536C224.394 136.959 224.11 137.471 224.11 138.072H221.749C221.749 137.387 221.99 136.727 222.473 136.092C222.964 135.449 223.624 134.941 224.453 134.568C225.291 134.196 226.209 134.01 227.208 134.01C228.791 134.01 230.031 134.408 230.928 135.203C231.825 135.99 232.29 137.078 232.324 138.466V144.788C232.324 146.049 232.485 147.052 232.807 147.797V148H230.344ZM226.446 146.21C227.183 146.21 227.881 146.02 228.541 145.639C229.201 145.258 229.679 144.763 229.976 144.153V141.335H228.135C225.257 141.335 223.818 142.177 223.818 143.861C223.818 144.598 224.064 145.173 224.555 145.588C225.046 146.003 225.676 146.21 226.446 146.21ZM242.646 136.371C242.29 136.312 241.905 136.282 241.49 136.282C239.95 136.282 238.905 136.938 238.354 138.25V148H236.006V134.264H238.291L238.329 135.851C239.099 134.623 240.191 134.01 241.604 134.01C242.062 134.01 242.409 134.069 242.646 134.188V136.371ZM252.789 148C252.654 147.729 252.544 147.247 252.459 146.553C251.367 147.687 250.064 148.254 248.549 148.254C247.195 148.254 246.082 147.873 245.21 147.111C244.347 146.341 243.915 145.368 243.915 144.191C243.915 142.761 244.457 141.652 245.54 140.865C246.632 140.07 248.164 139.672 250.136 139.672H252.421V138.593C252.421 137.772 252.175 137.12 251.685 136.638C251.194 136.147 250.47 135.901 249.514 135.901C248.676 135.901 247.973 136.113 247.406 136.536C246.839 136.959 246.556 137.471 246.556 138.072H244.194C244.194 137.387 244.436 136.727 244.918 136.092C245.409 135.449 246.069 134.941 246.898 134.568C247.736 134.196 248.655 134.01 249.653 134.01C251.236 134.01 252.476 134.408 253.373 135.203C254.27 135.99 254.736 137.078 254.77 138.466V144.788C254.77 146.049 254.93 147.052 255.252 147.797V148H252.789ZM248.892 146.21C249.628 146.21 250.326 146.02 250.986 145.639C251.646 145.258 252.125 144.763 252.421 144.153V141.335H250.58C247.702 141.335 246.264 142.177 246.264 143.861C246.264 144.598 246.509 145.173 247 145.588C247.491 146.003 248.121 146.21 248.892 146.21ZM270.41 146.337C271.248 146.337 271.98 146.083 272.606 145.575C273.233 145.067 273.58 144.433 273.647 143.671H275.869C275.827 144.458 275.556 145.207 275.057 145.918C274.557 146.629 273.889 147.196 273.051 147.619C272.221 148.042 271.341 148.254 270.41 148.254C268.54 148.254 267.05 147.632 265.941 146.388C264.841 145.135 264.291 143.425 264.291 141.259V140.865C264.291 139.528 264.536 138.339 265.027 137.298C265.518 136.257 266.221 135.449 267.135 134.873C268.057 134.298 269.145 134.01 270.397 134.01C271.938 134.01 273.216 134.471 274.231 135.394C275.256 136.316 275.801 137.514 275.869 138.986H273.647C273.58 138.098 273.241 137.37 272.632 136.803C272.031 136.227 271.286 135.939 270.397 135.939C269.204 135.939 268.277 136.371 267.617 137.234C266.965 138.089 266.64 139.329 266.64 140.954V141.398C266.64 142.981 266.965 144.2 267.617 145.055C268.269 145.91 269.2 146.337 270.41 146.337ZM277.888 141.005C277.888 139.659 278.15 138.449 278.675 137.374C279.208 136.299 279.944 135.47 280.884 134.886C281.832 134.302 282.911 134.01 284.121 134.01C285.992 134.01 287.502 134.657 288.653 135.952C289.813 137.247 290.393 138.969 290.393 141.119V141.284C290.393 142.621 290.134 143.823 289.618 144.89C289.11 145.948 288.378 146.773 287.422 147.365C286.474 147.958 285.382 148.254 284.146 148.254C282.285 148.254 280.774 147.606 279.614 146.312C278.463 145.017 277.888 143.303 277.888 141.17V141.005ZM280.249 141.284C280.249 142.808 280.6 144.031 281.303 144.953C282.014 145.876 282.962 146.337 284.146 146.337C285.34 146.337 286.288 145.871 286.99 144.94C287.693 144.001 288.044 142.689 288.044 141.005C288.044 139.498 287.684 138.28 286.965 137.349C286.254 136.409 285.306 135.939 284.121 135.939C282.962 135.939 282.026 136.401 281.315 137.323C280.604 138.246 280.249 139.566 280.249 141.284ZM295.56 134.264L295.636 135.99C296.685 134.67 298.056 134.01 299.749 134.01C302.652 134.01 304.116 135.647 304.142 138.923V148H301.793V138.91C301.785 137.92 301.556 137.188 301.107 136.714C300.667 136.24 299.978 136.003 299.038 136.003C298.276 136.003 297.608 136.206 297.032 136.612C296.457 137.019 296.008 137.552 295.687 138.212V148H293.338V134.264H295.56ZM315.682 144.356C315.682 143.722 315.44 143.231 314.958 142.884C314.484 142.528 313.65 142.224 312.457 141.97C311.272 141.716 310.328 141.411 309.626 141.056C308.932 140.7 308.416 140.277 308.077 139.786C307.747 139.295 307.582 138.711 307.582 138.034C307.582 136.909 308.056 135.956 309.004 135.178C309.96 134.399 311.179 134.01 312.66 134.01C314.217 134.01 315.479 134.412 316.443 135.216C317.417 136.02 317.903 137.048 317.903 138.301H315.542C315.542 137.658 315.267 137.103 314.717 136.638C314.175 136.172 313.49 135.939 312.66 135.939C311.805 135.939 311.137 136.126 310.654 136.498C310.172 136.87 309.931 137.357 309.931 137.958C309.931 138.525 310.155 138.952 310.604 139.24C311.052 139.528 311.86 139.803 313.028 140.065C314.205 140.328 315.157 140.641 315.885 141.005C316.613 141.369 317.15 141.809 317.497 142.325C317.853 142.833 318.03 143.455 318.03 144.191C318.03 145.419 317.539 146.405 316.558 147.149C315.576 147.886 314.302 148.254 312.736 148.254C311.636 148.254 310.663 148.059 309.816 147.67C308.97 147.281 308.306 146.739 307.823 146.045C307.349 145.342 307.112 144.585 307.112 143.772H309.461C309.503 144.56 309.816 145.186 310.4 145.651C310.993 146.108 311.771 146.337 312.736 146.337C313.625 146.337 314.336 146.159 314.869 145.804C315.411 145.44 315.682 144.957 315.682 144.356ZM329.57 146.642C328.656 147.716 327.315 148.254 325.546 148.254C324.082 148.254 322.965 147.831 322.194 146.984C321.433 146.13 321.048 144.868 321.039 143.201V134.264H323.388V143.138C323.388 145.22 324.234 146.261 325.927 146.261C327.721 146.261 328.914 145.592 329.507 144.255V134.264H331.855V148H329.621L329.57 146.642ZM337.987 148H335.639V128.5H337.987V148ZM344.944 130.938V134.264H347.509V136.079H344.944V144.598C344.944 145.148 345.059 145.562 345.287 145.842C345.516 146.113 345.905 146.248 346.455 146.248C346.726 146.248 347.098 146.197 347.572 146.096V148C346.954 148.169 346.354 148.254 345.77 148.254C344.72 148.254 343.929 147.937 343.396 147.302C342.862 146.667 342.596 145.766 342.596 144.598V136.079H340.095V134.264H342.596V130.938H344.944ZM358.744 148C358.609 147.729 358.499 147.247 358.414 146.553C357.322 147.687 356.019 148.254 354.504 148.254C353.15 148.254 352.037 147.873 351.165 147.111C350.302 146.341 349.87 145.368 349.87 144.191C349.87 142.761 350.412 141.652 351.495 140.865C352.587 140.07 354.119 139.672 356.091 139.672H358.376V138.593C358.376 137.772 358.131 137.12 357.64 136.638C357.149 136.147 356.425 135.901 355.469 135.901C354.631 135.901 353.928 136.113 353.361 136.536C352.794 136.959 352.511 137.471 352.511 138.072H350.149C350.149 137.387 350.391 136.727 350.873 136.092C351.364 135.449 352.024 134.941 352.854 134.568C353.691 134.196 354.61 134.01 355.608 134.01C357.191 134.01 358.431 134.408 359.328 135.203C360.225 135.99 360.691 137.078 360.725 138.466V144.788C360.725 146.049 360.885 147.052 361.207 147.797V148H358.744ZM354.847 146.21C355.583 146.21 356.281 146.02 356.941 145.639C357.602 145.258 358.08 144.763 358.376 144.153V141.335H356.535C353.658 141.335 352.219 142.177 352.219 143.861C352.219 144.598 352.464 145.173 352.955 145.588C353.446 146.003 354.076 146.21 354.847 146.21ZM371.046 136.371C370.69 136.312 370.305 136.282 369.891 136.282C368.35 136.282 367.305 136.938 366.755 138.25V148H364.406V134.264H366.691L366.729 135.851C367.5 134.623 368.591 134.01 370.005 134.01C370.462 134.01 370.809 134.069 371.046 134.188V136.371ZM382.218 148H379.869V128.5H382.218V148ZM394.469 148C394.333 147.729 394.223 147.247 394.139 146.553C393.047 147.687 391.743 148.254 390.229 148.254C388.874 148.254 387.761 147.873 386.89 147.111C386.026 146.341 385.595 145.368 385.595 144.191C385.595 142.761 386.136 141.652 387.22 140.865C388.312 140.07 389.843 139.672 391.815 139.672H394.101V138.593C394.101 137.772 393.855 137.12 393.364 136.638C392.873 136.147 392.15 135.901 391.193 135.901C390.355 135.901 389.653 136.113 389.086 136.536C388.519 136.959 388.235 137.471 388.235 138.072H385.874C385.874 137.387 386.115 136.727 386.598 136.092C387.089 135.449 387.749 134.941 388.578 134.568C389.416 134.196 390.334 134.01 391.333 134.01C392.916 134.01 394.156 134.408 395.053 135.203C395.95 135.99 396.415 137.078 396.449 138.466V144.788C396.449 146.049 396.61 147.052 396.932 147.797V148H394.469ZM390.571 146.21C391.308 146.21 392.006 146.02 392.666 145.639C393.326 145.258 393.804 144.763 394.101 144.153V141.335H392.26C389.382 141.335 387.943 142.177 387.943 143.861C387.943 144.598 388.189 145.173 388.68 145.588C389.171 146.003 389.801 146.21 390.571 146.21ZM408.129 144.356C408.129 143.722 407.888 143.231 407.405 142.884C406.931 142.528 406.098 142.224 404.904 141.97C403.719 141.716 402.776 141.411 402.073 141.056C401.379 140.7 400.863 140.277 400.524 139.786C400.194 139.295 400.029 138.711 400.029 138.034C400.029 136.909 400.503 135.956 401.451 135.178C402.408 134.399 403.626 134.01 405.107 134.01C406.665 134.01 407.926 134.412 408.891 135.216C409.864 136.02 410.351 137.048 410.351 138.301H407.989C407.989 137.658 407.714 137.103 407.164 136.638C406.622 136.172 405.937 135.939 405.107 135.939C404.253 135.939 403.584 136.126 403.102 136.498C402.619 136.87 402.378 137.357 402.378 137.958C402.378 138.525 402.602 138.952 403.051 139.24C403.499 139.528 404.308 139.803 405.476 140.065C406.652 140.328 407.604 140.641 408.332 141.005C409.06 141.369 409.597 141.809 409.944 142.325C410.3 142.833 410.478 143.455 410.478 144.191C410.478 145.419 409.987 146.405 409.005 147.149C408.023 147.886 406.749 148.254 405.184 148.254C404.083 148.254 403.11 148.059 402.264 147.67C401.417 147.281 400.753 146.739 400.271 146.045C399.797 145.342 399.56 144.585 399.56 143.772H401.908C401.951 144.56 402.264 145.186 402.848 145.651C403.44 146.108 404.219 146.337 405.184 146.337C406.072 146.337 406.783 146.159 407.316 145.804C407.858 145.44 408.129 144.957 408.129 144.356ZM419.364 141.005C419.364 139.659 419.627 138.449 420.151 137.374C420.685 136.299 421.421 135.47 422.36 134.886C423.308 134.302 424.387 134.01 425.598 134.01C427.468 134.01 428.979 134.657 430.13 135.952C431.289 137.247 431.869 138.969 431.869 141.119V141.284C431.869 142.621 431.611 143.823 431.095 144.89C430.587 145.948 429.855 146.773 428.898 147.365C427.951 147.958 426.859 148.254 425.623 148.254C423.761 148.254 422.25 147.606 421.091 146.312C419.94 145.017 419.364 143.303 419.364 141.17V141.005ZM421.726 141.284C421.726 142.808 422.077 144.031 422.779 144.953C423.49 145.876 424.438 146.337 425.623 146.337C426.816 146.337 427.764 145.871 428.467 144.94C429.169 144.001 429.521 142.689 429.521 141.005C429.521 139.498 429.161 138.28 428.441 137.349C427.73 136.409 426.783 135.939 425.598 135.939C424.438 135.939 423.503 136.401 422.792 137.323C422.081 138.246 421.726 139.566 421.726 141.284ZM426.664 128.5H429.508L426.105 132.232H424.214L426.664 128.5ZM441.454 136.371C441.099 136.312 440.714 136.282 440.299 136.282C438.758 136.282 437.713 136.938 437.163 138.25V148H434.814V134.264H437.1L437.138 135.851C437.908 134.623 439 134.01 440.413 134.01C440.87 134.01 441.217 134.069 441.454 134.188V136.371ZM442.8 141.018C442.8 138.91 443.299 137.217 444.298 135.939C445.297 134.653 446.604 134.01 448.221 134.01C449.829 134.01 451.103 134.56 452.042 135.66V128.5H454.391V148H452.232L452.118 146.527C451.179 147.678 449.871 148.254 448.195 148.254C446.604 148.254 445.305 147.602 444.298 146.299C443.299 144.995 442.8 143.294 442.8 141.195V141.018ZM445.148 141.284C445.148 142.841 445.47 144.06 446.113 144.94C446.757 145.821 447.645 146.261 448.779 146.261C450.269 146.261 451.356 145.592 452.042 144.255V137.945C451.34 136.65 450.26 136.003 448.805 136.003C447.654 136.003 446.757 136.447 446.113 137.336C445.47 138.225 445.148 139.541 445.148 141.284ZM463.747 148.254C461.885 148.254 460.37 147.645 459.202 146.426C458.034 145.199 457.45 143.561 457.45 141.513V141.081C457.45 139.718 457.708 138.504 458.225 137.438C458.749 136.363 459.477 135.525 460.408 134.924C461.348 134.314 462.363 134.01 463.455 134.01C465.241 134.01 466.629 134.598 467.619 135.774C468.609 136.951 469.104 138.635 469.104 140.827V141.805H459.799C459.833 143.159 460.226 144.255 460.979 145.093C461.741 145.922 462.706 146.337 463.874 146.337C464.703 146.337 465.406 146.168 465.981 145.829C466.557 145.491 467.061 145.042 467.492 144.483L468.927 145.601C467.776 147.369 466.049 148.254 463.747 148.254ZM463.455 135.939C462.507 135.939 461.712 136.286 461.068 136.98C460.425 137.666 460.027 138.631 459.875 139.875H466.756V139.697C466.688 138.504 466.367 137.581 465.791 136.93C465.215 136.27 464.437 135.939 463.455 135.939ZM474.056 134.264L474.132 135.99C475.181 134.67 476.552 134.01 478.245 134.01C481.148 134.01 482.612 135.647 482.638 138.923V148H480.289V138.91C480.281 137.92 480.052 137.188 479.604 136.714C479.163 136.24 478.474 136.003 477.534 136.003C476.772 136.003 476.104 136.206 475.528 136.612C474.953 137.019 474.504 137.552 474.183 138.212V148H471.834V134.264H474.056ZM491.88 148.254C490.018 148.254 488.503 147.645 487.335 146.426C486.167 145.199 485.583 143.561 485.583 141.513V141.081C485.583 139.718 485.841 138.504 486.357 137.438C486.882 136.363 487.61 135.525 488.541 134.924C489.48 134.314 490.496 134.01 491.588 134.01C493.374 134.01 494.762 134.598 495.752 135.774C496.742 136.951 497.237 138.635 497.237 140.827V141.805H487.932C487.965 143.159 488.359 144.255 489.112 145.093C489.874 145.922 490.839 146.337 492.007 146.337C492.836 146.337 493.539 146.168 494.114 145.829C494.69 145.491 495.193 145.042 495.625 144.483L497.06 145.601C495.909 147.369 494.182 148.254 491.88 148.254ZM491.588 135.939C490.64 135.939 489.844 136.286 489.201 136.98C488.558 137.666 488.16 138.631 488.008 139.875H494.889V139.697C494.821 138.504 494.499 137.581 493.924 136.93C493.348 136.27 492.57 135.939 491.588 135.939ZM507.965 144.356C507.965 143.722 507.724 143.231 507.241 142.884C506.767 142.528 505.934 142.224 504.74 141.97C503.555 141.716 502.612 141.411 501.909 141.056C501.215 140.7 500.699 140.277 500.36 139.786C500.03 139.295 499.865 138.711 499.865 138.034C499.865 136.909 500.339 135.956 501.287 135.178C502.243 134.399 503.462 134.01 504.943 134.01C506.501 134.01 507.762 134.412 508.727 135.216C509.7 136.02 510.187 137.048 510.187 138.301H507.825C507.825 137.658 507.55 137.103 507 136.638C506.458 136.172 505.773 135.939 504.943 135.939C504.089 135.939 503.42 136.126 502.938 136.498C502.455 136.87 502.214 137.357 502.214 137.958C502.214 138.525 502.438 138.952 502.887 139.24C503.335 139.528 504.144 139.803 505.312 140.065C506.488 140.328 507.44 140.641 508.168 141.005C508.896 141.369 509.433 141.809 509.78 142.325C510.136 142.833 510.313 143.455 510.313 144.191C510.313 145.419 509.823 146.405 508.841 147.149C507.859 147.886 506.585 148.254 505.02 148.254C503.919 148.254 502.946 148.059 502.1 147.67C501.253 147.281 500.589 146.739 500.106 146.045C499.632 145.342 499.396 144.585 499.396 143.772H501.744C501.786 144.56 502.1 145.186 502.684 145.651C503.276 146.108 504.055 146.337 505.02 146.337C505.908 146.337 506.619 146.159 507.152 145.804C507.694 145.44 507.965 144.957 507.965 144.356ZM519.251 141.018C519.251 138.91 519.75 137.217 520.749 135.939C521.748 134.653 523.055 134.01 524.672 134.01C526.28 134.01 527.554 134.56 528.493 135.66V128.5H530.842V148H528.684L528.569 146.527C527.63 147.678 526.322 148.254 524.646 148.254C523.055 148.254 521.756 147.602 520.749 146.299C519.75 144.995 519.251 143.294 519.251 141.195V141.018ZM521.6 141.284C521.6 142.841 521.921 144.06 522.564 144.94C523.208 145.821 524.096 146.261 525.23 146.261C526.72 146.261 527.808 145.592 528.493 144.255V137.945C527.791 136.65 526.712 136.003 525.256 136.003C524.105 136.003 523.208 136.447 522.564 137.336C521.921 138.225 521.6 139.541 521.6 141.284ZM540.198 148.254C538.336 148.254 536.821 147.645 535.653 146.426C534.485 145.199 533.901 143.561 533.901 141.513V141.081C533.901 139.718 534.16 138.504 534.676 137.438C535.201 136.363 535.928 135.525 536.859 134.924C537.799 134.314 538.814 134.01 539.906 134.01C541.692 134.01 543.08 134.598 544.07 135.774C545.061 136.951 545.556 138.635 545.556 140.827V141.805H536.25C536.284 143.159 536.677 144.255 537.431 145.093C538.192 145.922 539.157 146.337 540.325 146.337C541.155 146.337 541.857 146.168 542.433 145.829C543.008 145.491 543.512 145.042 543.943 144.483L545.378 145.601C544.227 147.369 542.5 148.254 540.198 148.254ZM539.906 135.939C538.958 135.939 538.163 136.286 537.52 136.98C536.876 137.666 536.479 138.631 536.326 139.875H543.207V139.697C543.139 138.504 542.818 137.581 542.242 136.93C541.667 136.27 540.888 135.939 539.906 135.939ZM555.89 148V136.079H553.719V134.264H555.89V132.854C555.89 131.382 556.283 130.243 557.07 129.439C557.857 128.635 558.97 128.233 560.409 128.233C560.951 128.233 561.488 128.305 562.021 128.449L561.895 130.354C561.497 130.277 561.074 130.239 560.625 130.239C559.863 130.239 559.275 130.464 558.86 130.912C558.446 131.352 558.238 131.987 558.238 132.816V134.264H561.171V136.079H558.238V148H555.89ZM572.254 148C572.118 147.729 572.008 147.247 571.924 146.553C570.832 147.687 569.529 148.254 568.014 148.254C566.66 148.254 565.547 147.873 564.675 147.111C563.812 146.341 563.38 145.368 563.38 144.191C563.38 142.761 563.922 141.652 565.005 140.865C566.097 140.07 567.629 139.672 569.601 139.672H571.886V138.593C571.886 137.772 571.64 137.12 571.149 136.638C570.659 136.147 569.935 135.901 568.979 135.901C568.141 135.901 567.438 136.113 566.871 136.536C566.304 136.959 566.021 137.471 566.021 138.072H563.659C563.659 137.387 563.9 136.727 564.383 136.092C564.874 135.449 565.534 134.941 566.363 134.568C567.201 134.196 568.119 134.01 569.118 134.01C570.701 134.01 571.941 134.408 572.838 135.203C573.735 135.99 574.201 137.078 574.234 138.466V144.788C574.234 146.049 574.395 147.052 574.717 147.797V148H572.254ZM568.356 146.21C569.093 146.21 569.791 146.02 570.451 145.639C571.111 145.258 571.59 144.763 571.886 144.153V141.335H570.045C567.167 141.335 565.729 142.177 565.729 143.861C565.729 144.598 565.974 145.173 566.465 145.588C566.956 146.003 567.586 146.21 568.356 146.21ZM583.426 146.337C584.264 146.337 584.996 146.083 585.622 145.575C586.248 145.067 586.595 144.433 586.663 143.671H588.885C588.842 144.458 588.572 145.207 588.072 145.918C587.573 146.629 586.904 147.196 586.066 147.619C585.237 148.042 584.357 148.254 583.426 148.254C581.555 148.254 580.066 147.632 578.957 146.388C577.857 145.135 577.307 143.425 577.307 141.259V140.865C577.307 139.528 577.552 138.339 578.043 137.298C578.534 136.257 579.236 135.449 580.15 134.873C581.073 134.298 582.16 134.01 583.413 134.01C584.953 134.01 586.231 134.471 587.247 135.394C588.271 136.316 588.817 137.514 588.885 138.986H586.663C586.595 138.098 586.257 137.37 585.647 136.803C585.047 136.227 584.302 135.939 583.413 135.939C582.22 135.939 581.293 136.371 580.633 137.234C579.981 138.089 579.655 139.329 579.655 140.954V141.398C579.655 142.981 579.981 144.2 580.633 145.055C581.285 145.91 582.215 146.337 583.426 146.337ZM594.712 130.938V134.264H597.276V136.079H594.712V144.598C594.712 145.148 594.826 145.562 595.055 145.842C595.283 146.113 595.673 146.248 596.223 146.248C596.493 146.248 596.866 146.197 597.34 146.096V148C596.722 148.169 596.121 148.254 595.537 148.254C594.488 148.254 593.696 147.937 593.163 147.302C592.63 146.667 592.363 145.766 592.363 144.598V136.079H589.862V134.264H592.363V130.938H594.712ZM608.512 146.642C607.598 147.716 606.256 148.254 604.487 148.254C603.023 148.254 601.906 147.831 601.136 146.984C600.374 146.13 599.989 144.868 599.98 143.201V134.264H602.329V143.138C602.329 145.22 603.175 146.261 604.868 146.261C606.662 146.261 607.856 145.592 608.448 144.255V134.264H610.797V148H608.562L608.512 146.642ZM621.017 136.371C620.661 136.312 620.276 136.282 619.861 136.282C618.321 136.282 617.276 136.938 616.726 138.25V148H614.377V134.264H616.662L616.7 135.851C617.47 134.623 618.562 134.01 619.976 134.01C620.433 134.01 620.78 134.069 621.017 134.188V136.371ZM631.16 148C631.025 147.729 630.915 147.247 630.83 146.553C629.738 147.687 628.435 148.254 626.92 148.254C625.566 148.254 624.453 147.873 623.581 147.111C622.718 146.341 622.286 145.368 622.286 144.191C622.286 142.761 622.828 141.652 623.911 140.865C625.003 140.07 626.535 139.672 628.507 139.672H630.792V138.593C630.792 137.772 630.547 137.12 630.056 136.638C629.565 136.147 628.841 135.901 627.885 135.901C627.047 135.901 626.344 136.113 625.777 136.536C625.21 136.959 624.927 137.471 624.927 138.072H622.565C622.565 137.387 622.807 136.727 623.289 136.092C623.78 135.449 624.44 134.941 625.27 134.568C626.107 134.196 627.026 134.01 628.024 134.01C629.607 134.01 630.847 134.408 631.744 135.203C632.641 135.99 633.107 137.078 633.141 138.466V144.788C633.141 146.049 633.301 147.052 633.623 147.797V148H631.16ZM627.263 146.21C627.999 146.21 628.697 146.02 629.357 145.639C630.018 145.258 630.496 144.763 630.792 144.153V141.335H628.951C626.074 141.335 624.635 142.177 624.635 143.861C624.635 144.598 624.88 145.173 625.371 145.588C625.862 146.003 626.493 146.21 627.263 146.21ZM642.332 146.337C643.17 146.337 643.902 146.083 644.528 145.575C645.155 145.067 645.502 144.433 645.569 143.671H647.791C647.749 144.458 647.478 145.207 646.979 145.918C646.479 146.629 645.811 147.196 644.973 147.619C644.143 148.042 643.263 148.254 642.332 148.254C640.462 148.254 638.972 147.632 637.863 146.388C636.763 145.135 636.213 143.425 636.213 141.259V140.865C636.213 139.528 636.458 138.339 636.949 137.298C637.44 136.257 638.143 135.449 639.057 134.873C639.979 134.298 641.067 134.01 642.319 134.01C643.86 134.01 645.138 134.471 646.153 135.394C647.177 136.316 647.723 137.514 647.791 138.986H645.569C645.502 138.098 645.163 137.37 644.554 136.803C643.953 136.227 643.208 135.939 642.319 135.939C641.126 135.939 640.199 136.371 639.539 137.234C638.887 138.089 638.562 139.329 638.562 140.954V141.398C638.562 142.981 638.887 144.2 639.539 145.055C640.191 145.91 641.122 146.337 642.332 146.337ZM652.983 148H650.635V134.264H652.983V148ZM650.444 130.62C650.444 130.239 650.559 129.918 650.787 129.655C651.024 129.393 651.371 129.262 651.828 129.262C652.285 129.262 652.632 129.393 652.869 129.655C653.106 129.918 653.225 130.239 653.225 130.62C653.225 131.001 653.106 131.318 652.869 131.572C652.632 131.826 652.285 131.953 651.828 131.953C651.371 131.953 651.024 131.826 650.787 131.572C650.559 131.318 650.444 131.001 650.444 130.62ZM656.132 141.005C656.132 139.659 656.394 138.449 656.919 137.374C657.452 136.299 658.188 135.47 659.128 134.886C660.076 134.302 661.155 134.01 662.365 134.01C664.236 134.01 665.746 134.657 666.897 135.952C668.057 137.247 668.637 138.969 668.637 141.119V141.284C668.637 142.621 668.379 143.823 667.862 144.89C667.354 145.948 666.622 146.773 665.666 147.365C664.718 147.958 663.626 148.254 662.391 148.254C660.529 148.254 659.018 147.606 657.858 146.312C656.707 145.017 656.132 143.303 656.132 141.17V141.005ZM658.493 141.284C658.493 142.808 658.844 144.031 659.547 144.953C660.258 145.876 661.206 146.337 662.391 146.337C663.584 146.337 664.532 145.871 665.234 144.94C665.937 144.001 666.288 142.689 666.288 141.005C666.288 139.498 665.928 138.28 665.209 137.349C664.498 136.409 663.55 135.939 662.365 135.939C661.206 135.939 660.271 136.401 659.56 137.323C658.849 138.246 658.493 139.566 658.493 141.284ZM663.432 128.5H666.275L662.873 132.232H660.981L663.432 128.5ZM673.804 134.264L673.88 135.99C674.929 134.67 676.3 134.01 677.993 134.01C680.896 134.01 682.36 135.647 682.386 138.923V148H680.037V138.91C680.029 137.92 679.8 137.188 679.352 136.714C678.911 136.24 678.222 136.003 677.282 136.003C676.521 136.003 675.852 136.206 675.276 136.612C674.701 137.019 674.252 137.552 673.931 138.212V148H671.582V134.264H673.804Z" fill="#C1C1C1"/>
</svg>
