<svg width="49" height="35" viewBox="0 0 49 35" fill="none" xmlns="http://www.w3.org/2000/svg">
<rect width="49" height="35" rx="2" fill="#4F4F4F"/>
<path d="M16.3594 20.3379C16.3594 19.7389 16.1478 19.2344 15.7246 18.8242C15.3079 18.4141 14.6016 18.043 13.6055 17.7109C12.2188 17.2878 11.2064 16.7376 10.5684 16.0605C9.93685 15.377 9.62109 14.5111 9.62109 13.4629C9.62109 12.3952 9.93034 11.5195 10.5488 10.8359C11.1738 10.1523 12.0299 9.74544 13.1172 9.61523V7.47656H14.5723V9.625C15.666 9.77474 16.5156 10.2337 17.1211 11.002C17.7331 11.7702 18.0391 12.8216 18.0391 14.1562H16.2422C16.2422 13.2383 16.0241 12.5091 15.5879 11.9688C15.1517 11.4284 14.5625 11.1582 13.8203 11.1582C13.0456 11.1582 12.4531 11.36 12.043 11.7637C11.6328 12.1608 11.4277 12.7174 11.4277 13.4336C11.4277 14.0977 11.6426 14.6283 12.0723 15.0254C12.5085 15.416 13.2214 15.7741 14.2109 16.0996C15.207 16.4186 15.9818 16.7734 16.5352 17.1641C17.0951 17.5482 17.5052 17.9974 17.7656 18.5117C18.0326 19.026 18.166 19.6283 18.166 20.3184C18.166 21.4186 17.834 22.304 17.1699 22.9746C16.5124 23.6452 15.5879 24.0423 14.3965 24.166V26.0312H12.9512V24.166C11.7402 24.0553 10.7897 23.6257 10.0996 22.877C9.41602 22.1217 9.07422 21.0996 9.07422 19.8105H10.8809C10.8809 20.7155 11.1185 21.4121 11.5938 21.9004C12.069 22.3887 12.7428 22.6328 13.6152 22.6328C14.4681 22.6328 15.1387 22.4277 15.627 22.0176C16.1152 21.6074 16.3594 21.0475 16.3594 20.3379Z" fill="white"/>
<rect x="23" y="12" width="23" height="4" rx="2" fill="white"/>
<rect x="22" y="19" width="12" height="4" rx="2" fill="white"/>
<rect x="37" y="19" width="9" height="4" rx="2" fill="white"/>
</svg>
