<svg width="48" height="48" viewBox="0 0 48 48" fill="none" xmlns="http://www.w3.org/2000/svg">
<rect width="48" height="48" rx="10" fill="#6E8098"/>
<path d="M33.6 16.4H24L21.6 14H14.4C14.0855 14.0003 13.7741 14.0626 13.4837 14.1835C13.1933 14.3043 12.9296 14.4813 12.7078 14.7043C12.4859 14.9272 12.3103 15.1918 12.1909 15.4828C12.0715 15.7738 12.0107 16.0855 12.012 16.4L12 30.8C12 31.4365 12.2529 32.047 12.7029 32.4971C13.153 32.9471 13.7635 33.2 14.4 33.2H33.6C34.2365 33.2 34.847 32.9471 35.2971 32.4971C35.7471 32.047 36 31.4365 36 30.8V18.8C36 18.1635 35.7471 17.553 35.2971 17.1029C34.847 16.6529 34.2365 16.4 33.6 16.4V16.4Z" fill="#EAEEF7"/>
</svg>
