<svg width="250" height="68" viewBox="0 0 250 68" fill="none" xmlns="http://www.w3.org/2000/svg">
<path d="M0 10C0 4.47715 4.47715 0 10 0H240C245.523 0 250 4.47715 250 10V45C250 50.5228 245.523 55 240 55H10C4.47716 55 0 50.5228 0 45V10Z" fill="#475469"/>
<path d="M124 67L113 55H136L124 67Z" fill="#495669" stroke="#49566A"/>
<path d="M215 17C209.478 17 205 21.477 205 27C205 31.237 207.636 34.855 211.356 36.312C211.268 35.521 211.189 34.307 211.391 33.444C211.573 32.664 212.563 28.474 212.563 28.474C212.563 28.474 212.264 27.874 212.264 26.988C212.264 25.598 213.07 24.56 214.074 24.56C214.926 24.56 215.338 25.2 215.338 25.968C215.338 26.826 214.793 28.108 214.51 29.298C214.274 30.293 215.01 31.105 215.99 31.105C217.768 31.105 219.134 29.231 219.134 26.525C219.134 24.132 217.414 22.457 214.957 22.457C212.112 22.457 210.442 24.592 210.442 26.797C210.442 27.656 210.773 28.578 211.187 29.078C211.222 29.1159 211.247 29.1624 211.26 29.2129C211.272 29.2634 211.27 29.3161 211.256 29.366L210.978 30.499C210.934 30.682 210.833 30.722 210.643 30.633C209.394 30.052 208.613 28.226 208.613 26.759C208.613 23.605 210.905 20.707 215.221 20.707C218.69 20.707 221.386 23.18 221.386 26.483C221.386 29.93 219.213 32.703 216.196 32.703C215.183 32.703 214.231 32.178 213.905 31.555L213.282 33.933C213.056 34.802 212.447 35.891 212.038 36.554C212.975 36.844 213.969 37 215 37C220.522 37 225 32.523 225 27C225 21.477 220.522 17 215 17Z" fill="white"/>
<path d="M39.296 35.24C40.0907 35.24 40.8213 35.1067 41.488 34.84C42.16 34.5733 42.6987 34.1787 43.104 33.656C43.5093 33.1333 43.712 32.4853 43.712 31.712C43.712 31.152 43.608 30.688 43.4 30.32C43.192 29.9467 42.928 29.648 42.608 29.424C42.2933 29.2 41.9653 29.0267 41.624 28.904C41.288 28.776 40.9867 28.6747 40.72 28.6L38.592 28C38.32 27.9253 38.0453 27.832 37.768 27.72C37.496 27.6027 37.2667 27.4453 37.08 27.248C36.8933 27.0507 36.8 26.792 36.8 26.472C36.8 26.1413 36.904 25.8533 37.112 25.608C37.3253 25.3573 37.608 25.1627 37.96 25.024C38.3173 24.8853 38.7093 24.8213 39.136 24.832C39.7973 24.8373 40.3813 25.0267 40.888 25.4C41.4 25.768 41.7173 26.2773 41.84 26.928L43.632 26.624C43.3973 25.5627 42.8853 24.7387 42.096 24.152C41.3067 23.56 40.328 23.2587 39.16 23.248C38.3867 23.2427 37.688 23.368 37.064 23.624C36.44 23.88 35.944 24.2533 35.576 24.744C35.2133 25.2347 35.032 25.8373 35.032 26.552C35.032 27.1707 35.1627 27.672 35.424 28.056C35.6853 28.44 36.0107 28.7387 36.4 28.952C36.7947 29.1653 37.184 29.328 37.568 29.44L40.52 30.312C40.9467 30.44 41.2933 30.6213 41.56 30.856C41.832 31.0853 41.968 31.408 41.968 31.824C41.968 32.208 41.848 32.5387 41.608 32.816C41.3733 33.088 41.0613 33.2987 40.672 33.448C40.2827 33.592 39.856 33.664 39.392 33.664C38.6453 33.664 37.992 33.4693 37.432 33.08C36.872 32.6907 36.504 32.1413 36.328 31.432L34.584 31.696C34.712 32.4267 34.9893 33.0587 35.416 33.592C35.8427 34.12 36.3893 34.528 37.056 34.816C37.7227 35.0987 38.4693 35.24 39.296 35.24ZM48.6169 35H50.2889V30.024H56.0489V35H57.7289V23.48H56.0489V28.448H50.2889V23.48H48.6169V35ZM62.3762 35H64.1122L64.9522 32.4H69.6803L70.5363 35H72.2723L68.5282 23.48H66.1202L62.3762 35ZM65.4642 30.832L67.3042 25.152L69.1683 30.832H65.4642ZM76.9075 35H78.5795V30.864H81.6355L83.6435 35H85.5555L83.3795 30.536C84.0355 30.2533 84.5262 29.8133 84.8515 29.216C85.1768 28.6187 85.3395 27.936 85.3395 27.168C85.3395 26.2347 85.0995 25.4347 84.6195 24.768C84.1395 24.1013 83.4168 23.6933 82.4515 23.544C82.3022 23.5173 82.1448 23.5013 81.9795 23.496C81.8142 23.4853 81.6755 23.48 81.5635 23.48H76.9075V35ZM78.5795 29.28V25.056H81.4995C81.6062 25.056 81.7235 25.0613 81.8515 25.072C81.9848 25.0827 82.1102 25.104 82.2275 25.136C82.7395 25.2533 83.1022 25.5147 83.3155 25.92C83.5288 26.3253 83.6355 26.7413 83.6355 27.168C83.6355 27.5893 83.5288 28.0053 83.3155 28.416C83.1022 28.8213 82.7395 29.0853 82.2275 29.208C82.1102 29.2347 81.9848 29.2533 81.8515 29.264C81.7235 29.2747 81.6062 29.28 81.4995 29.28H78.5795ZM90.5137 35H97.8737V33.424H92.1857V29.864H96.9137V28.288H92.1857V25.056H97.8737V23.48H90.5137V35Z" fill="#6E8098"/>
<path d="M185 20.924C184.251 21.256 183.457 21.4737 182.643 21.57C183.5 21.0576 184.141 20.2507 184.447 19.3C183.642 19.778 182.761 20.1148 181.842 20.296C181.458 19.8863 180.994 19.5598 180.479 19.3369C179.964 19.1139 179.408 18.9993 178.847 19C176.197 19 174.251 21.472 174.849 24.037C173.218 23.9556 171.622 23.5321 170.165 22.7938C168.708 22.0556 167.422 21.0193 166.392 19.752C165.868 20.6555 165.707 21.7247 165.943 22.7423C166.179 23.7598 166.794 24.6494 167.662 25.23C167.011 25.2096 166.374 25.0337 165.804 24.717C165.759 26.617 167.122 28.396 169.095 28.792C168.491 28.9561 167.857 28.98 167.242 28.862C167.504 29.6773 168.014 30.3903 168.702 30.9011C169.389 31.412 170.219 31.6951 171.075 31.711C169.355 33.0597 167.17 33.6708 165 33.41C166.876 34.6154 169.06 35.2552 171.29 35.253C178.908 35.253 183.212 28.819 182.953 23.048C183.756 22.467 184.449 21.7478 185 20.924Z" fill="white"/>
<path d="M143.896 17H126.104C125.494 17 125 17.494 125 18.104V35.897C125 36.506 125.494 37 126.104 37H135.684V29.255H133.076V26.237H135.682V24.01C135.682 21.427 137.26 20.02 139.565 20.02C140.669 20.02 141.617 20.102 141.894 20.139V22.839H140.296C139.042 22.839 138.8 23.436 138.8 24.309V26.237H141.789L141.399 29.255H138.799V37H143.897C144.505 37 144.999 36.506 144.999 35.896V18.104C145 17.494 144.506 17 143.896 17Z" fill="white"/>
</svg>
