<svg width="37" height="44" viewBox="0 0 37 44" fill="none" xmlns="http://www.w3.org/2000/svg">
<path d="M1.5 38.5V4.5L4 7L7.5 3.5L9.5 7L13 3.5L15 7L18.5 3.5L20 7L23.5 3.5L26 7V6.5L29 4V4.5V42H4L1.5 38.5Z" fill="#ECF7FF" stroke="#ECF7FF"/>
<path d="M29.5 22H35L36 23.5V39.5L32.5 42.5H29.5M29.5 22V3L26 6L23.5 3L20.5 6L18 3L15.5 6L13 3L10 6L7 3L4.5 6L1 3.5V39L4 42.5H29.5M29.5 22V42.5" stroke="#A1B4CA" stroke-width="2"/>
<path d="M34.5 22.5H30V42H32.5L35.5 39.5V23.5L35 22.5H34.5Z" fill="#91B3D0"/>
<path d="M17.4336 18.6196C17.4336 18.2303 17.2961 17.9023 17.021 17.6357C16.7502 17.3691 16.291 17.1279 15.6436 16.9121C14.7422 16.637 14.0841 16.2795 13.6694 15.8394C13.259 15.395 13.0537 14.8322 13.0537 14.1509C13.0537 13.4569 13.2547 12.8877 13.6567 12.4434C14.063 11.999 14.6195 11.7345 15.3262 11.6499V10.2598H16.272V11.6562C16.9829 11.7536 17.5352 12.0519 17.9287 12.5513C18.3265 13.0506 18.5254 13.734 18.5254 14.6016H17.3574C17.3574 14.0049 17.2157 13.5309 16.9321 13.1797C16.6486 12.8285 16.2656 12.6528 15.7832 12.6528C15.2796 12.6528 14.8945 12.784 14.6279 13.0464C14.3613 13.3045 14.228 13.6663 14.228 14.1318C14.228 14.5635 14.3677 14.9084 14.647 15.1665C14.9305 15.4204 15.3939 15.6532 16.0371 15.8647C16.6846 16.0721 17.1882 16.3027 17.5479 16.5566C17.9118 16.8063 18.1784 17.0983 18.3477 17.4326C18.5212 17.7669 18.6079 18.1584 18.6079 18.6069C18.6079 19.3221 18.3921 19.8976 17.9604 20.3335C17.533 20.7694 16.9321 21.0275 16.1577 21.1079V22.3203H15.2183V21.1079C14.4312 21.036 13.8133 20.7567 13.3647 20.27C12.9204 19.7791 12.6982 19.1147 12.6982 18.2769H13.8726C13.8726 18.8651 14.027 19.3179 14.3359 19.6353C14.6449 19.9526 15.0828 20.1113 15.6499 20.1113C16.2043 20.1113 16.6401 19.978 16.9575 19.7114C17.2749 19.4448 17.4336 19.0809 17.4336 18.6196Z" fill="#92A8C0"/>
<rect x="7" y="16" width="3" height="1" fill="#92A8C0"/>
<rect x="11" y="24" width="13" height="1" fill="#92A8C0"/>
<rect x="11" y="29" width="13" height="1" fill="#92A8C0"/>
<rect x="11" y="34" width="13" height="1" fill="#92A8C0"/>
<rect x="7" y="24" width="1" height="1" fill="#92A8C0"/>
<rect x="7" y="29" width="1" height="1" fill="#92A8C0"/>
<rect x="7" y="34" width="1" height="1" fill="#92A8C0"/>
<rect x="21" y="16" width="3" height="1" fill="#92A8C0"/>
</svg>
