<svg width="54" height="54" viewBox="0 0 54 54" fill="none" xmlns="http://www.w3.org/2000/svg">
<g filter="url(#filter0_d)">
<circle cx="27" cy="23" r="21" fill="white"/>
</g>
<circle cx="26.5" cy="23.5" r="15.5" fill="#2267A0"/>
<path d="M23 30.5C23 29.6667 23.6 26.6 26 21L23.5 20.5H23V20L23.5 19L24 18.5L25 18H26H28H29H30.5L31 18.5V20L30.5 21.5L29.5 23.5L28.5 25L28 26.5V28H30.5V28.5L30 30L29 31.5L28.5 32L27 32.5H25.5L24 32L23.5 31.5L23 30.5Z" fill="white" stroke="white"/>
<circle cx="28.5" cy="13.5" r="2.5" fill="white"/>
<defs>
<filter id="filter0_d" x="0" y="0" width="54" height="54" filterUnits="userSpaceOnUse" color-interpolation-filters="sRGB">
<feFlood flood-opacity="0" result="BackgroundImageFix"/>
<feColorMatrix in="SourceAlpha" type="matrix" values="0 0 0 0 0 0 0 0 0 0 0 0 0 0 0 0 0 0 127 0" result="hardAlpha"/>
<feOffset dy="4"/>
<feGaussianBlur stdDeviation="3"/>
<feComposite in2="hardAlpha" operator="out"/>
<feColorMatrix type="matrix" values="0 0 0 0 0 0 0 0 0 0 0 0 0 0 0 0 0 0 0.25 0"/>
<feBlend mode="normal" in2="BackgroundImageFix" result="effect1_dropShadow"/>
<feBlend mode="normal" in="SourceGraphic" in2="effect1_dropShadow" result="shape"/>
</filter>
</defs>
</svg>
