<svg width="64" height="88" viewBox="0 0 64 88" fill="none" xmlns="http://www.w3.org/2000/svg">
<path d="M16 8V32.5L15.5 34L13 31.5L11.5 30.5L9.5 30H7.5L5.5 30.5L4 31.5L2 33.5L1 35V37V40L2 42.5L4 44.5L6.5 46L8.5 48L11 50L13 52.5L15 56.5L17 59.5L18.5 62.5L20.5 65.5L23 68H54.5L55.5 67L57 64.5L57.5 62.5L58.5 59.5L60 57L61 55L62 52L63 50V37V35.5L62.5 34.5L62 33L61 32L60 31L59.5 30.5L59 30L58.5 29.5L58 29H57H56.5H54.5H53H51.5V28L51 27.5L50.5 27L50 26.5L49.5 26L49 25.5L48 25H47.5H46.5H45.5H44.5L43 25.5L42 26L41.5 25.5L41 24.5L40.5 24L40 23.5L39.5 23L38.5 22.5L37.5 22H36.5H35.5L34.5 22.5L33 23L31 24V10V8V7V6.5V6V5.5L30.5 5L29.5 4L28.5 3L28 2.5L27.5 2L27 1.5L26 1H25H23.5L22 1.5L21 2L20 2.5L19 3L18.5 3.5L17.5 4.5L16.5 6L16 8Z" fill="#BBBBBB" stroke="#BBBBBB" stroke-opacity="0.5"/>
<rect x="19" y="71" width="39" height="17" rx="5" fill="#BBBBBB"/>
<circle cx="50.5" cy="79.5" r="3.5" fill="white"/>
</svg>
