<svg width="19" height="21" viewBox="0 0 19 21" fill="none" xmlns="http://www.w3.org/2000/svg">
<path d="M0 7H19V19C19 20.1046 18.1046 21 17 21H2C0.895431 21 0 20.1046 0 19V7Z" fill="white"/>
<rect x="8.5" y="9" width="3" height="10" rx="1" fill="#2267A0"/>
<rect x="15" y="12.5" width="3" height="10" rx="1" transform="rotate(90 15 12.5)" fill="#2267A0"/>
<path d="M0 5C0 3.34315 1.34315 2 3 2H16C17.6569 2 19 3.34315 19 5V6H0V5Z" fill="white"/>
<path d="M4 1.5C4 0.671573 4.67157 0 5.5 0H6.5C7.32843 0 8 0.671573 8 1.5V3H4V1.5Z" fill="white"/>
<path d="M12 1.5C12 0.671573 12.6716 0 13.5 0H14.5C15.3284 0 16 0.671573 16 1.5V3H12V1.5Z" fill="white"/>
</svg>
